<svg width="141" height="141" viewBox="0 0 141 141" fill="none" xmlns="http://www.w3.org/2000/svg">
<g filter="url(#filter0_d_2651_684)">
<path d="M16 26C16 20.4771 20.4772 16 26 16H114.443C119.966 16 124.443 20.4772 124.443 26V114.443C124.443 119.966 119.966 124.443 114.443 124.443H26C20.4771 124.443 16 119.966 16 114.443V26Z" fill="#0185FF"/>
<path d="M26 16.75H114.443C119.552 16.75 123.693 20.8914 123.693 26V114.443C123.693 119.552 119.552 123.693 114.443 123.693H26C20.8914 123.693 16.75 119.552 16.75 114.443V26C16.75 20.8914 20.8914 16.75 26 16.75Z" stroke="url(#paint0_radial_2651_684)" stroke-width="1.5"/>
</g>
<path d="M76.08 83.8347C76.5837 82.8354 77.0873 81.836 77.5834 80.8531C77.0381 80.0267 76.4895 79.196 75.9727 78.4134C76.9428 78.2853 77.8867 78.2404 78.7878 78.0237C80.127 77.7019 81.2811 77.0911 81.5066 75.492C81.672 76.4749 81.4147 77.2991 80.7555 77.993C80.3909 78.3761 80.0076 78.7406 79.6408 79.1204C78.8864 79.903 78.7265 80.5663 79.1152 81.2647C79.5017 81.9597 80.3273 82.3253 81.1716 82.1764C82.1275 82.0079 82.8688 81.2997 82.9651 80.447C82.9936 80.1953 82.9805 79.9381 82.9794 79.683C82.975 71.4651 82.9695 63.2472 82.9717 55.0293C82.9717 54.8235 83.0133 54.586 83.1206 54.4185C83.9878 53.0624 84.8748 51.7194 85.6905 50.4727C86.5424 51.7806 87.4687 53.1795 88.3622 54.598C88.4849 54.7929 88.4794 55.0873 88.4794 55.3358C88.4772 63.3534 88.4684 71.371 88.4641 79.3886C88.4641 79.7695 88.4652 80.157 88.532 80.5302C88.6842 81.384 89.4452 81.9586 90.3912 81.9805C91.3482 82.0035 92.1147 81.5208 92.2658 80.6627C92.3304 80.2993 92.2132 79.8133 91.9986 79.5101C91.5486 78.8764 90.9704 78.3335 90.4613 77.7402C89.8897 77.0747 89.7222 76.384 89.8788 75.4668C89.8963 75.4723 89.928 75.4745 89.9291 75.4832C90.3113 77.576 91.957 77.9777 93.675 78.259C94.1557 78.3378 94.6517 78.3236 95.2343 78.3575C94.7996 79.0351 94.4163 79.7082 93.9553 80.3223C93.6936 80.6725 93.7122 80.9243 93.9061 81.2833C94.3769 82.1545 94.8039 83.0499 95.2901 84.0186C95.1051 84 95.0503 84.0087 95.012 83.989C93.6816 83.317 92.3906 83.4888 91.092 84.1127C89.0378 85.1 87.4545 86.5645 86.3979 88.5894C86.1986 88.9714 86.0059 89.3578 85.7748 89.8131C85.5076 89.314 85.2876 88.8664 85.0346 88.4373C83.6254 86.0391 81.5986 84.4312 78.905 83.6935C78.1867 83.4965 77.4673 83.5195 76.7599 83.7712C76.5782 83.8358 76.3964 83.8971 76.2146 83.9606C76.1687 83.919 76.1238 83.8785 76.0778 83.8369L76.08 83.8347Z" fill="black"/>
<path d="M84.9208 97.5549C84.554 100.429 83.9156 103.224 82.5173 105.82C82.537 105.683 82.5535 105.546 82.5787 105.411C82.6082 105.25 82.6542 105.092 82.6761 104.93C83.021 102.411 83.4305 99.8983 83.6725 97.3699C83.7722 96.3224 83.6178 95.218 83.3922 94.1804C82.986 92.3185 81.7717 91.5119 79.85 91.5841C80.5464 91.2503 81.2439 90.9153 81.9403 90.5815C81.0216 89.6511 79.423 89.6062 78.6138 90.4863C77.6754 91.5053 77.8517 92.3722 79.2806 93.6287C77.0436 94.222 75.2336 95.5256 73.3984 96.8817C73.7488 96.3706 74.0937 95.8551 74.4529 95.3494C74.6631 95.0527 74.8788 94.7561 75.1219 94.4869C75.9114 93.6101 76.2289 92.5714 76.1468 91.4188C76.1063 90.8475 76.3122 90.4228 76.6286 89.9707C77.2932 89.0239 77.9075 88.0399 78.513 87.0537C78.6696 86.7987 78.7156 86.4758 78.8361 86.1113C78.9269 86.304 78.9904 86.4397 79.055 86.5754C79.4109 87.3197 79.9792 87.855 80.7577 88.0958C83.4952 88.9429 85.0095 90.8705 85.6873 93.5631C85.696 93.597 85.7179 93.6265 85.6763 93.5423C86.099 92.6579 86.5118 91.6793 87.0242 90.7555C87.7042 89.5285 88.763 88.7262 90.1088 88.3092C91.2136 87.9677 92.152 87.4314 92.5013 86.1299C92.7017 86.6422 92.8451 87.092 93.052 87.5102C93.2601 87.9316 93.5283 88.3245 93.778 88.7251C93.8831 88.8948 93.9915 89.0666 94.1273 89.2122C94.8555 89.9981 95.3153 90.8431 95.1839 91.9946C95.0788 92.914 95.5508 93.7064 96.1158 94.431C96.7749 95.276 97.398 96.1495 98.0024 97.0514C96.188 95.6219 94.3693 94.2176 91.9943 93.6101C92.6852 93.1209 93.4079 92.6524 93.2272 91.7428C93.1265 91.2382 92.8725 90.7008 92.5286 90.3232C91.8465 89.5734 90.2007 89.7376 89.4277 90.5487C90.0639 90.8617 90.699 91.1736 91.4698 91.5535C90.8741 91.5972 90.4362 91.5742 90.0255 91.6695C88.8047 91.9541 88.0754 92.8494 87.875 94.1859C87.5203 96.5523 87.6571 98.9089 88.0458 101.253C88.2835 102.685 88.5824 104.108 88.8506 105.534C88.8638 105.603 88.8528 105.676 88.8528 105.904C87.5301 103.324 86.9706 100.68 86.4757 97.9905C86.4647 98.1865 86.4549 98.3835 86.4428 98.5794C86.4286 98.7972 86.4045 99.015 86.3979 99.2339C86.3421 100.961 86.1625 102.701 86.5764 104.401C86.7779 105.23 87.1808 106.01 87.5367 106.926C86.2994 108.981 86.1165 111.521 85.6709 113.999C85.1672 111.547 84.9799 109.015 83.6287 106.761C84.8157 105.583 85.0095 104.005 85.0938 102.451C85.1759 100.928 85.0434 99.3937 84.9996 97.8647C84.9964 97.7607 84.9504 97.6578 84.9241 97.5549H84.9208Z" fill="black"/>
<path d="M86.0148 47.5589C85.936 48.2792 85.856 49.0005 85.7772 49.7207C85.7389 49.7251 85.7005 49.7294 85.6622 49.7349C85.5483 48.9753 85.4345 48.2168 85.2954 47.2908C84.783 49.5795 84.0493 51.6296 82.9741 53.4334C82.4627 49.5839 81.9437 45.6741 81.4258 41.7808C81.7225 42.0479 82.051 42.3445 82.4091 42.6674C83.4602 37.1235 84.4994 31.6452 85.5385 26.167C85.6206 26.1637 85.7038 26.1604 85.7859 26.1582C86.8043 31.6966 87.8237 37.2351 88.8442 42.7834C89.1617 42.455 89.499 42.1059 89.8351 41.7567L89.9359 41.8092C89.6413 43.7433 89.3074 45.673 89.0643 47.6137C88.8179 49.5795 88.6624 51.5573 88.4631 53.5571C87.2291 51.7259 86.5261 49.6802 86.0137 47.5589H86.0148Z" fill="black"/>
<path d="M54.3051 89.7451C53.4653 88.4305 52.6003 87.093 51.7604 85.7412C51.6575 85.5748 51.663 85.3242 51.663 85.1118C51.663 76.9672 51.6706 68.8227 51.6695 60.6781C51.6695 60.2622 51.663 59.8342 51.5666 59.4336C51.3575 58.5645 50.511 57.9581 49.6241 57.9745C48.631 57.9931 47.847 58.5043 47.7244 59.3559C47.6685 59.7411 47.7911 60.2403 48.0145 60.561C48.4481 61.1838 49.0208 61.7081 49.5179 62.2893C50.1015 62.9701 50.3446 63.7472 50.1464 64.763C49.5957 62.9143 48.5565 62.101 46.5943 61.9007C46.0348 61.8438 45.472 61.8077 44.7887 61.7529C45.218 61.0426 45.6012 60.3519 46.0436 59.7017C46.2483 59.4007 46.2538 59.1895 46.0797 58.8775C45.5979 58.0117 45.1567 57.1219 44.6562 56.1598C45.334 56.3108 45.8618 56.4827 46.4027 56.5363C47.5327 56.649 48.5456 56.2134 49.5201 55.7143C51.7681 54.5628 53.312 52.7623 54.3117 50.3203C54.4595 50.6093 54.5624 50.8063 54.661 51.0055C55.8238 53.3654 57.5845 55.0948 60.0165 56.1357C61.279 56.6753 62.5272 56.8526 63.7865 56.1094C63.8346 56.1455 63.8828 56.1827 63.9321 56.2189C63.4174 57.2565 62.9028 58.2941 62.3739 59.3602C62.8754 60.1396 63.412 60.9747 63.977 61.8525C61.4016 61.7584 58.9565 62.3068 58.4945 64.6579C58.2503 63.9749 58.4791 63.0281 59.0934 62.3276C59.5007 61.8624 59.9595 61.4421 60.3691 60.978C61.1717 60.0684 61.2056 59.2825 60.5015 58.5711C59.8577 57.9209 58.6094 57.899 57.8506 58.5306C57.3437 58.952 57.1115 59.4883 57.1126 60.156C57.1258 67.8266 57.0962 75.4984 57.1619 83.169C57.175 84.6565 56.9232 85.8988 55.9301 87.0579C55.2577 87.8438 54.8373 88.8454 54.3062 89.7473L54.3051 89.7451Z" fill="black"/>
<path d="M52.4832 33.2022C53.6757 31.0711 53.9176 28.5448 54.3578 26C54.5998 27.3091 54.8144 28.5514 55.0619 29.7883C55.3115 31.0393 55.6762 32.2532 56.3999 33.3685C55.1101 34.9896 55.0389 36.9357 55.0247 38.8906C55.0181 39.7651 55.0553 40.6397 55.086 41.5131C55.098 41.8491 55.1506 42.1841 55.2261 42.5179C55.6148 39.6436 56.2083 36.8394 57.5694 34.2464C57.3427 35.504 57.092 36.7573 56.8927 38.0193C56.5149 40.4142 56.2247 42.8178 56.5072 45.2466C56.5653 45.7469 56.6792 46.2547 56.8576 46.7254C57.3569 48.0487 58.499 48.6485 60.159 48.5785C59.4702 48.9079 58.7815 49.2385 58.0928 49.568C58.9107 50.4392 60.4667 50.5366 61.2583 49.7573C61.7565 49.2659 62.0587 48.6255 61.8343 47.9787C61.6405 47.4215 61.1685 46.9618 60.8313 46.4769C62.9391 45.8935 64.7611 44.5647 66.605 43.1812C66.1397 43.8336 65.7313 44.5385 65.1958 45.1273C64.1315 46.2974 63.5983 47.612 63.7242 49.2035C63.7439 49.4563 63.5731 49.7573 63.4176 49.9861C62.9665 50.6461 62.4266 51.2503 62.0182 51.9333C61.6416 52.5637 61.3908 53.2697 61.0744 53.9659C61.0152 53.8334 60.9462 53.6594 60.8619 53.4919C60.5247 52.8264 59.9925 52.3525 59.295 52.1292C56.6332 51.2798 55.1309 49.406 54.4651 46.7692C54.4476 46.7013 54.4169 46.6356 54.429 46.6685C54.0501 47.4566 53.6844 48.318 53.2344 49.1334C52.481 50.4972 51.3456 51.4123 49.8323 51.8501C48.7078 52.1752 47.8329 52.7947 47.442 54.002C47.1102 52.3448 45.9638 51.1868 45.0561 49.8821C44.8754 49.6238 44.7779 49.2407 44.7944 48.9233C44.8622 47.6021 44.479 46.4704 43.6271 45.4513C43.0227 44.7289 42.519 43.9222 42 43.1134C43.81 44.5494 45.6375 45.9461 48.0136 46.5371C47.3675 47.0308 46.6689 47.4686 46.7839 48.3289C46.8485 48.8072 47.0533 49.3239 47.3489 49.7015C47.9763 50.4994 49.5881 50.4436 50.6218 49.6325C49.9057 49.2735 49.2082 48.9233 48.4242 48.5303C48.9246 48.5303 49.3144 48.5818 49.6867 48.5205C50.924 48.318 51.7485 47.5846 52.0058 46.3675C52.204 45.4316 52.3069 44.4608 52.3212 43.503C52.3661 40.4864 51.8799 37.5278 51.2032 34.5977C51.1791 34.4948 51.1616 34.3898 51.1758 34.277C52.5456 36.742 53.1818 39.4313 53.6001 42.1961C53.7709 39.9665 54.0096 37.7358 53.5026 35.539C53.3198 34.7488 52.8511 34.0253 52.4821 33.2044L52.4832 33.2022Z" fill="black"/>
<path d="M54.1362 113.99C53.1124 108.469 52.0886 102.948 51.0747 97.4719C50.7549 97.7652 50.398 98.0925 49.9688 98.4854C50.2929 96.5787 50.6433 94.764 50.8995 92.936C51.159 91.0863 51.3243 89.2244 51.5411 87.2849C52.831 88.907 53.4431 90.7831 54.053 92.6668C54.1209 91.928 54.1888 91.1902 54.2566 90.4514C54.2994 90.4525 54.341 90.4547 54.3837 90.4558C54.4844 91.1815 54.584 91.9072 54.6848 92.6318C55.1972 90.4908 55.9528 88.4363 57.0455 86.6172C57.5229 90.4689 58.0091 94.3874 58.4898 98.2654C58.2292 98.017 57.904 97.7083 57.5602 97.3799C56.498 102.958 55.4469 108.473 54.3957 113.99C54.3103 113.99 54.2249 113.989 54.1395 113.988L54.1362 113.99Z" fill="black"/>
<defs>
<filter id="filter0_d_2651_684" x="0" y="0" width="140.443" height="140.443" filterUnits="userSpaceOnUse" color-interpolation-filters="sRGB">
<feFlood flood-opacity="0" result="BackgroundImageFix"/>
<feColorMatrix in="SourceAlpha" type="matrix" values="0 0 0 0 0 0 0 0 0 0 0 0 0 0 0 0 0 0 127 0" result="hardAlpha"/>
<feOffset/>
<feGaussianBlur stdDeviation="8"/>
<feComposite in2="hardAlpha" operator="out"/>
<feColorMatrix type="matrix" values="0 0 0 0 0.0862745 0 0 0 0 0.560784 0 0 0 0 1 0 0 0 1 0"/>
<feBlend mode="normal" in2="BackgroundImageFix" result="effect1_dropShadow_2651_684"/>
<feBlend mode="normal" in="SourceGraphic" in2="effect1_dropShadow_2651_684" result="shape"/>
</filter>
<radialGradient id="paint0_radial_2651_684" cx="0" cy="0" r="1" gradientUnits="userSpaceOnUse" gradientTransform="translate(123.77 16.7076) rotate(133.052) scale(145.609 198.5)">
<stop stop-color="white"/>
<stop offset="1" stop-color="white"/>
</radialGradient>
</defs>
</svg>
