<svg width="141" height="141" viewBox="0 0 141 141" fill="none" xmlns="http://www.w3.org/2000/svg">
<g filter="url(#filter0_d_2637_3977)">
<path d="M26 16.75H114.443C119.552 16.75 123.693 20.8914 123.693 26V114.443C123.693 119.552 119.552 123.693 114.443 123.693H26C20.8914 123.693 16.75 119.552 16.75 114.443V26C16.75 20.8914 20.8914 16.75 26 16.75Z" fill="#0185FF" stroke="url(#paint0_radial_2637_3977)" stroke-width="1.5"/>
<path d="M31 96.4723C31.504 95.4621 31.9904 94.4749 32.4865 93.4932C33.4761 91.534 34.4745 89.5802 35.4578 87.6184C35.5938 87.3467 35.7633 87.1949 36.0669 87.1213C39.1389 86.3747 42.2064 85.613 45.2757 84.855C45.3181 84.8443 45.3596 84.8328 45.4717 84.8017C45.1 84.1182 44.762 83.4382 44.3656 82.7946C44.1688 82.4741 44.2005 82.2593 44.4124 81.9735C45.3516 80.7085 46.2697 79.4276 47.1983 78.1537C47.2583 78.072 47.336 78.0037 47.4278 77.9052C49.0962 79.1923 50.7567 80.4742 52.4807 81.8039C52.4383 81.6557 52.4286 81.574 52.3933 81.5048C51.4787 79.7267 50.5722 77.9433 49.6391 76.175C49.2525 75.4427 48.7864 74.7618 47.9575 74.4094C48.5613 73.7507 49.1121 73.0779 49.7468 72.4964C49.9737 72.2878 50.3974 72.2736 50.739 72.2177C52.9476 71.8555 55.1589 71.5066 57.4258 71.1436C57.4558 71.3832 57.4805 71.5217 57.4893 71.6611C57.5758 73.0317 57.7012 74.4014 57.7233 75.772C57.7321 76.3277 57.5299 76.8923 57.3896 77.4436C57.3251 77.6966 57.176 77.9274 57.0674 78.1688C56.7434 78.8923 56.8087 79.59 57.2757 80.2185C58.0587 81.2704 58.8699 82.301 59.6706 83.3397C59.803 83.5119 59.9425 83.6779 60.1093 83.8332C59.3899 81.7081 59.0032 79.5296 58.9185 77.2776C62.1281 79.3832 65.5249 81.0307 69.1954 82.0702C69.2122 82.0347 69.2298 81.9992 69.2466 81.9637C68.2967 81.4205 67.3257 80.9091 66.4006 80.3259C64.4886 79.1204 62.6084 77.8626 60.6972 76.6553C60.1367 76.3011 59.9231 75.8306 59.8869 75.1968C59.8118 73.8999 59.7156 72.6038 59.592 71.3104C59.5664 71.0415 59.4367 70.7405 59.261 70.5346C58.2026 69.2909 57.6164 67.8307 57.2395 66.2657C57.1918 66.0668 57.1433 65.8689 57.0833 65.6221C56.3594 65.9851 55.6585 65.9479 54.9762 65.5803C54.2302 65.1782 53.72 64.5568 53.4481 63.7632C52.8558 62.0393 52.2291 60.3234 51.7356 58.5711C51.2174 56.7344 51.8186 55.7136 53.6159 55.0904C53.4879 54.2107 53.3457 53.3266 53.2327 52.4389C53.1136 51.5023 53.0297 50.5623 52.9132 49.6249C52.8814 49.3674 52.832 49.0958 52.7199 48.8659C51.6553 46.6981 51.1813 44.4185 51.4231 42.0057C51.5441 40.802 51.823 39.6382 52.4542 38.4833C52.5548 39.6631 52.6475 40.7505 52.7402 41.838C52.7746 41.8477 52.8099 41.8584 52.8443 41.8681C53.8516 38.1318 55.7698 35.04 59.028 32.8855C58.282 34.5313 57.7339 36.2179 57.642 38.0271C58.38 37.0284 59.0589 35.9996 59.8471 35.0639C61.9569 32.5597 64.5672 30.8545 67.8042 30.1771C69.462 29.8301 71.0509 30.0191 72.6549 30.5171C74.2041 30.9983 75.7771 31.427 77.366 31.7404C78.6593 31.996 79.9763 31.8442 81.2139 31.3409C81.627 31.1731 81.9907 30.8829 82.4153 30.6263C82.5654 33.103 82.8585 35.5788 83.6203 38.083C84.1075 37.6427 84.5366 37.2548 85.0486 36.7923C85.1889 37.514 85.3655 38.2011 85.4484 38.8988C85.6285 40.4194 85.5641 41.9329 85.2048 43.4287C85.1695 43.5752 85.1916 43.7563 85.2454 43.8992C86.0981 46.1841 86.2323 48.4753 85.4855 50.8321C85.2498 51.576 85.2948 52.4087 85.2048 53.1996C85.1333 53.8272 85.0538 54.4539 84.9779 55.0771C85.2666 55.1783 85.5703 55.2475 85.8395 55.3842C86.8626 55.9035 87.3216 56.943 87.1159 58.2391C86.7876 60.3065 86.0319 62.2444 85.2481 64.1627C84.827 65.1933 83.999 65.8262 82.8302 65.8573C82.5892 65.8635 82.3447 65.7765 82.1055 65.7321C81.9607 66.4965 81.8919 67.2954 81.6465 68.034C81.3949 68.7903 80.9314 69.4729 80.634 70.2168C80.4662 70.6376 80.408 71.1143 80.3665 71.5714C80.2526 72.8213 80.1546 74.073 80.0884 75.3255C80.0602 75.8572 79.8845 76.254 79.4325 76.5434C77.1471 78.0081 74.8697 79.487 72.5807 80.9482C72.0149 81.3095 71.4181 81.6211 70.8293 81.9593C72.0149 82.1111 77.8383 79.4364 81.1336 77.2003C80.9826 78.3943 80.8908 79.4862 80.6957 80.5585C80.5015 81.6255 80.2032 82.6739 79.9331 83.8013C80.1237 83.5749 80.2888 83.3911 80.4406 83.1958C81.176 82.2558 81.906 81.3122 82.6404 80.3712C83.2336 79.6104 83.3554 78.808 82.8593 77.9487C82.2882 76.9598 82.2132 75.8963 82.3235 74.7805C82.4197 73.812 82.4268 72.8337 82.4745 71.8599C82.4833 71.6709 82.4965 71.4827 82.5124 71.2217C83.3095 71.3158 84.0669 71.3806 84.8155 71.4986C86.4927 71.7649 88.1664 72.0552 89.8401 72.3446C89.9919 72.3712 90.1729 72.421 90.2735 72.5248C90.8649 73.1382 91.4361 73.7711 92.0372 74.4227C91.1863 74.8319 90.7131 75.5776 90.3026 76.3615C89.3961 78.0951 88.516 79.843 87.6262 81.5865C87.6006 81.6371 87.5873 81.6939 87.522 81.8767C89.2742 80.5106 90.9303 79.219 92.6322 77.891C92.9261 78.262 93.2298 78.6153 93.4999 78.9935C94.2211 79.9992 94.9203 81.021 95.6459 82.0232C95.8339 82.2833 95.8533 82.4875 95.6865 82.7698C95.2972 83.4266 94.9432 84.1048 94.5698 84.7839C95.9504 85.1 97.3045 85.3849 98.6463 85.7231C100.449 86.1785 102.242 86.6703 104.034 87.1639C104.195 87.2082 104.381 87.3503 104.456 87.4985C105.969 90.4634 107.468 93.4355 108.969 96.4066C108.981 96.4314 108.981 96.4625 109 96.5513C108.051 97.1487 107.097 97.7772 106.116 98.3613C98.6887 102.786 90.8579 106.28 82.5398 108.643C79.2392 109.58 75.8839 110.256 72.5021 110.822C70.4974 111.157 68.5307 110.975 66.556 110.639C61.3593 109.757 56.2932 108.383 51.3437 106.571C44.7019 104.14 38.3515 101.1 32.3427 97.3502C31.8969 97.0724 31.4652 96.7732 31 96.4661L31 96.4723ZM70.0596 96.6161C68.5881 95.233 67.1103 93.8607 65.6538 92.467C64.9132 91.7586 64.1196 91.1647 63.153 90.783C61.8042 90.2504 60.4845 89.6459 59.1515 89.0733C58.7834 88.9153 58.4136 88.7608 58.0154 88.5913C57.7436 89.2979 57.492 89.953 57.2289 90.6357C57.4046 90.7218 57.5582 90.8008 57.7153 90.8736C59.1109 91.5225 60.5233 92.1385 61.8969 92.8327C62.5166 93.1452 63.1177 93.5482 63.6253 94.0213C65.4349 95.7097 67.1986 97.4479 68.9826 99.1638C69.3278 99.4958 69.6844 99.8162 70.0393 100.145C71.63 98.6054 73.1889 97.1016 74.7416 95.5926C76.0269 94.3436 77.2398 93.0031 79.0124 92.4084C79.4405 92.2646 79.843 92.0391 80.2553 91.8474C81.1142 91.4479 81.9722 91.0458 82.8567 90.6321C82.5786 89.9379 82.3156 89.2775 82.0499 88.6144C80.6022 89.2491 79.2339 89.9299 77.8092 90.4537C76.0817 91.0893 74.6799 92.1421 73.4034 93.4363C72.3291 94.5264 71.1868 95.5482 70.0596 96.6161ZM77.5779 39.7146C74.129 42.7061 70.0181 44.2605 65.6732 45.3337C68.378 45.2991 71.0659 45.2441 73.7486 45.0914C75.1301 45.0133 76.4242 44.5659 77.4649 43.5752C78.0925 42.9778 78.5931 42.2996 78.8438 41.3684C77.7792 42.0679 76.7075 42.5348 75.439 42.8357C76.3694 41.8584 77.1251 40.897 77.5779 39.7146ZM82.9494 60.0935C82.9644 60.0944 82.9794 60.0961 82.9944 60.097C83.0209 59.8804 83.058 59.6647 83.0739 59.4472C83.1718 58.0793 83.291 56.7122 83.3554 55.3416C83.4596 53.1313 83.5549 50.92 83.5991 48.7079C83.6185 47.7545 83.3413 46.8437 82.8205 46.0288C82.237 45.1153 80.7805 44.3901 79.8607 44.5641C79.9472 44.6928 80.0275 44.8135 80.1105 44.9334C81.1248 46.3936 82.0207 47.9187 82.2414 49.7234C82.4189 51.1703 82.5319 52.6279 82.6263 54.0829C82.757 56.0846 82.8435 58.0891 82.9485 60.0926L82.9494 60.0935ZM55.5738 60.0748L55.6532 60.0802C55.6771 59.8369 55.7106 59.5937 55.7238 59.3496C55.8739 56.667 56.031 53.9852 56.1643 51.3026C56.2694 49.1748 56.8688 47.2245 58.1214 45.49C58.3403 45.1872 58.5266 44.8606 58.7481 44.5135C56.807 44.7114 55.8218 45.6453 55.3655 46.9174C55.023 47.8699 54.9559 48.8481 54.9876 49.837C55.0468 51.6674 55.1156 53.4979 55.2189 55.3257C55.309 56.9102 55.4537 58.4921 55.5738 60.0748Z" fill="black"/>
</g>
<defs>
<filter id="filter0_d_2637_3977" x="0" y="0" width="140.443" height="140.443" filterUnits="userSpaceOnUse" color-interpolation-filters="sRGB">
<feFlood flood-opacity="0" result="BackgroundImageFix"/>
<feColorMatrix in="SourceAlpha" type="matrix" values="0 0 0 0 0 0 0 0 0 0 0 0 0 0 0 0 0 0 127 0" result="hardAlpha"/>
<feOffset/>
<feGaussianBlur stdDeviation="8"/>
<feComposite in2="hardAlpha" operator="out"/>
<feColorMatrix type="matrix" values="0 0 0 0 0.0862745 0 0 0 0 0.560784 0 0 0 0 1 0 0 0 1 0"/>
<feBlend mode="normal" in2="BackgroundImageFix" result="effect1_dropShadow_2637_3977"/>
<feBlend mode="normal" in="SourceGraphic" in2="effect1_dropShadow_2637_3977" result="shape"/>
</filter>
<radialGradient id="paint0_radial_2637_3977" cx="0" cy="0" r="1" gradientUnits="userSpaceOnUse" gradientTransform="translate(123.77 16.7076) rotate(133.052) scale(145.609 198.5)">
<stop stop-color="white"/>
<stop offset="1" stop-color="white"/>
</radialGradient>
</defs>
</svg>
