<svg width="141" height="141" viewBox="0 0 141 141" fill="none" xmlns="http://www.w3.org/2000/svg">
<g filter="url(#filter0_bd_2637_3970)">
<path d="M16 26C16 20.4771 20.4772 16 26 16H114.443C119.966 16 124.443 20.4772 124.443 26V114.443C124.443 119.966 119.966 124.443 114.443 124.443H26C20.4771 124.443 16 119.966 16 114.443V26Z" fill="#0185FF"/>
<path d="M26 16.75H114.443C119.552 16.75 123.693 20.8914 123.693 26V114.443C123.693 119.552 119.552 123.693 114.443 123.693H26C20.8914 123.693 16.75 119.552 16.75 114.443V26C16.75 20.8914 20.8914 16.75 26 16.75Z" stroke="url(#paint0_radial_2637_3970)" stroke-width="1.5"/>
</g>
<path d="M68.2858 39C69.1006 39 69.9167 39 70.7327 39C71.6919 39.1624 72.6609 39.2781 73.6091 39.4934C81.043 41.1779 86.8154 47.5456 87.6058 55.2188C87.8297 57.3906 87.7244 59.5968 87.7685 61.7871C87.7734 62.0467 87.7685 62.3075 87.7685 62.6262C89.0385 62.6262 90.2362 62.6213 91.434 62.6275C92.474 62.6324 92.9964 63.1344 92.9976 64.1582C93.0013 75.0011 93.0062 85.8427 92.994 96.6856C92.9915 98.4243 92.3333 99.9217 90.8945 100.905C90.1469 101.417 89.2061 101.643 88.3533 101.999H50.6677C50.6322 101.979 50.5991 101.946 50.5612 101.941C47.8928 101.59 45.9854 99.2807 46.0001 96.2562C46.0502 85.6188 46.0197 74.9814 46.0197 64.344C46.0197 63.0987 46.4821 62.6299 47.7068 62.6275C48.8643 62.625 50.0204 62.6275 51.25 62.6275C51.25 62.3494 51.25 62.1304 51.25 61.9113C51.25 60.4975 51.2574 59.0825 51.25 57.6687C51.2268 53.5245 52.3964 49.7654 54.8642 46.4382C57.3858 43.0396 60.6929 40.7657 64.7609 39.6583C65.9098 39.3445 67.1088 39.2141 68.2858 39ZM79.9174 62.593C79.9174 60.7005 79.9774 58.8388 79.8942 56.9833C79.8489 55.9755 79.6911 54.9346 79.3619 53.9859C77.6833 49.1415 73.1895 46.3927 68.0619 46.9931C63.2463 47.5567 59.2088 51.9839 59.1109 56.8356C59.0742 58.6174 59.0925 60.4015 59.0889 62.1845C59.0889 62.3198 59.1182 62.4552 59.1354 62.593H79.9186H79.9174ZM69.5044 91.5115C70.2788 91.5115 71.0533 91.5115 71.8278 91.5115C71.8486 91.5115 71.8681 91.5115 71.8889 91.5115C72.968 91.4586 73.5174 90.8483 73.4036 89.8122C73.1528 87.5334 72.8897 85.257 72.6561 82.977C72.6365 82.7813 72.7429 82.502 72.8873 82.3691C74.227 81.1436 74.8461 79.6608 74.6662 77.8237C74.3726 74.8165 71.5561 72.5869 68.4253 73.2575C66.2915 73.714 64.8967 75.1253 64.4281 77.2688C63.9938 79.2536 64.5909 80.9848 66.1251 82.3605C66.2646 82.486 66.3955 82.7321 66.3771 82.9068C66.1422 85.1869 65.8841 87.4632 65.621 89.7408C65.495 90.8249 66.0162 91.4684 67.1198 91.5053C67.9138 91.5324 68.7091 91.5103 69.5044 91.5103V91.5115Z" fill="black"/>
<defs>
<filter id="filter0_bd_2637_3970" x="-54" y="-54" width="248.443" height="248.443" filterUnits="userSpaceOnUse" color-interpolation-filters="sRGB">
<feFlood flood-opacity="0" result="BackgroundImageFix"/>
<feGaussianBlur in="BackgroundImageFix" stdDeviation="35"/>
<feComposite in2="SourceAlpha" operator="in" result="effect1_backgroundBlur_2637_3970"/>
<feColorMatrix in="SourceAlpha" type="matrix" values="0 0 0 0 0 0 0 0 0 0 0 0 0 0 0 0 0 0 127 0" result="hardAlpha"/>
<feOffset/>
<feGaussianBlur stdDeviation="8"/>
<feComposite in2="hardAlpha" operator="out"/>
<feColorMatrix type="matrix" values="0 0 0 0 0.0862745 0 0 0 0 0.560784 0 0 0 0 1 0 0 0 1 0"/>
<feBlend mode="normal" in2="effect1_backgroundBlur_2637_3970" result="effect2_dropShadow_2637_3970"/>
<feBlend mode="normal" in="SourceGraphic" in2="effect2_dropShadow_2637_3970" result="shape"/>
</filter>
<radialGradient id="paint0_radial_2637_3970" cx="0" cy="0" r="1" gradientUnits="userSpaceOnUse" gradientTransform="translate(123.77 16.7076) rotate(133.052) scale(145.609 198.5)">
<stop stop-color="white"/>
<stop offset="1" stop-color="white"/>
</radialGradient>
</defs>
</svg>
