<svg width="141" height="141" viewBox="0 0 141 141" fill="none" xmlns="http://www.w3.org/2000/svg">
<g filter="url(#filter0_d_2637_3991)">
<path d="M16.75 26C16.75 20.8914 20.8914 16.75 26 16.75H114.443C119.552 16.75 123.693 20.8914 123.693 26V114.443C123.693 119.552 119.552 123.693 114.443 123.693H26C20.8914 123.693 16.75 119.552 16.75 114.443V26Z" fill="#0185FF" stroke="url(#paint0_radial_2637_3991)" stroke-width="1.5"/>
<path d="M108.999 103.686C107.084 103.686 105.367 103.686 103.65 103.686C95.6013 103.686 87.5516 103.685 79.5032 103.696C79.2539 103.696 78.8767 103.774 78.7748 103.945C77.7776 105.613 76.146 106.154 74.3904 106.547C71.1781 107.268 68.0193 107.132 64.8905 106.114C63.8398 105.772 62.9692 105.199 62.4118 104.233C62.1625 103.8 61.8427 103.674 61.3519 103.675C51.7581 103.696 42.1656 103.7 32.5717 103.707C32.4464 103.707 32.3224 103.707 32 103.707C34.5962 100.758 37.0841 97.9342 39.6007 95.0766C37.6832 93.0382 35.7592 90.9933 33.753 88.8625C37.3882 88.3572 40.889 87.8974 44.4354 88.0537C48.1555 88.2178 51.8207 88.7271 55.3424 89.9878C60.232 91.7384 64.2392 94.6311 66.9712 99.1259C67.0038 99.1806 67.0482 99.2275 67.1552 99.2523C67.1017 99.1064 67.0625 98.9527 66.9921 98.8146C65.2952 95.4907 62.7747 92.891 59.7464 90.7745C55.4024 87.7411 50.5781 85.9372 45.2995 85.3967C43.8533 85.2482 42.394 85.2339 40.9425 85.1323C40.6867 85.114 40.3656 85.0398 40.1998 84.8705C38.1218 82.7397 36.0673 80.5867 34.0075 78.4376C33.9383 78.3647 33.894 78.2683 33.7164 78C37.2655 78.4025 40.6566 78.7046 44.0204 79.1878C48.6045 79.8469 52.9354 81.3291 56.9988 83.5693C63.6597 87.241 68.2086 92.6188 70.3244 99.966C70.3897 100.191 70.4602 100.417 70.5307 100.639C70.5346 100.652 70.5685 100.656 70.6051 100.672C71.6284 96.8479 73.307 93.356 75.868 90.3096C78.9915 86.5936 82.9022 83.9601 87.3271 82.0454C90.7678 80.5567 94.3808 79.6619 98.0852 79.1579C101.094 78.7489 104.114 78.4246 107.274 78.0456C107.103 78.297 107.037 78.4207 106.945 78.5236C105.068 80.6583 103.198 82.7996 101.295 84.9109C101.117 85.1075 100.735 85.2078 100.449 85.2078C95.7279 85.2026 91.1711 86.0284 86.8206 87.8753C82.303 89.7938 78.3976 92.5289 75.5077 96.5549C74.8851 97.4223 74.3982 98.3887 73.85 99.3083C73.8957 99.3421 73.9414 99.3773 73.9871 99.4112C74.0236 99.3864 74.0758 99.3708 74.0967 99.3369C77.0349 94.3667 81.529 91.4414 86.9042 89.7248C91.7285 88.1839 96.699 87.9 101.719 88.2465C103.579 88.3754 105.435 88.5669 107.441 88.744C105.404 90.9647 103.475 93.0682 101.539 95.1769C104.001 97.9837 106.438 100.763 109 103.683L108.999 103.686Z" fill="black"/>
<path d="M55.5051 52.616C53.9316 56.4959 53.7501 60.3929 55.2929 64.4667C55.4371 63.9695 55.5398 63.595 55.6546 63.2257C56.3406 61.0352 57.7073 59.2588 59.2034 57.5681C61.3254 55.1705 63.4181 52.7532 65.0077 49.9574C66.6666 47.0415 67.5782 43.8738 68.2722 40.6309C68.7433 38.4285 69.1917 36.2222 69.7723 34C69.9351 34.753 70.1206 35.5008 70.2581 36.2591C71.4019 42.588 74.3314 48.024 78.6342 52.798C80.8938 55.305 83.0905 57.8688 85.2967 60.4233C85.6771 60.8624 85.9627 61.3807 86.3951 62.0137C86.5833 57.2437 84.5787 53.3084 82.5046 49.3929C82.562 49.3599 82.6194 49.327 82.6768 49.294C83.5377 50.3108 84.4372 51.2986 85.254 52.3496C87.8378 55.6769 89.8171 59.3089 90.5992 63.471C91.3772 67.6107 91.1237 71.6567 88.9362 75.3915C87.2426 78.2823 84.6054 80.0917 81.545 81.3564C80.2598 81.8879 78.9599 82.3864 77.6706 82.9086C73.8576 84.4529 71.6808 87.287 70.9414 91.2513C70.8373 91.8105 70.7292 92.3683 70.6078 93C70.4036 92.0861 70.2354 91.2341 70.0219 90.3928C69.1717 87.0338 67.1124 84.6916 63.8879 83.3517C62.604 82.8176 61.2934 82.3429 60.0282 81.7666C55.1341 79.5365 51.8563 75.9164 50.4589 70.7243C49.5647 67.4023 50.0865 64.1554 51.0875 60.9521C52.0364 57.9136 53.4898 55.1257 55.5065 52.6147L55.5051 52.616ZM69.6575 47.4015C69.5481 48.293 69.452 49.4087 69.2678 50.5099C68.7687 53.4878 67.398 56.1016 65.7564 58.6007C64.646 60.2914 63.4742 61.9504 62.4812 63.7071C60.1657 67.8045 60.3632 71.8282 63.2513 75.5893C64.2122 76.8396 65.4174 77.9131 66.5558 79.0208C68.1174 80.5414 69.6161 82.0936 70.1807 84.2775C70.3008 84.7417 70.3889 85.2139 70.5237 85.8258C70.6051 85.5844 70.6505 85.4882 70.6705 85.388C71.0976 83.237 72.1026 81.3999 73.6988 79.8728C74.6891 78.9246 75.6714 77.9684 76.6363 76.9952C78.7944 74.8152 79.9048 72.2554 79.6472 69.1457C79.4083 66.2589 78.5982 63.529 77.2449 61.0035C74.7611 56.368 72.1279 51.8103 69.6589 47.4015H69.6575Z" fill="black"/>
</g>
<defs>
<filter id="filter0_d_2637_3991" x="0" y="0" width="140.443" height="140.443" filterUnits="userSpaceOnUse" color-interpolation-filters="sRGB">
<feFlood flood-opacity="0" result="BackgroundImageFix"/>
<feColorMatrix in="SourceAlpha" type="matrix" values="0 0 0 0 0 0 0 0 0 0 0 0 0 0 0 0 0 0 127 0" result="hardAlpha"/>
<feOffset/>
<feGaussianBlur stdDeviation="8"/>
<feComposite in2="hardAlpha" operator="out"/>
<feColorMatrix type="matrix" values="0 0 0 0 0.0862745 0 0 0 0 0.560784 0 0 0 0 1 0 0 0 1 0"/>
<feBlend mode="normal" in2="BackgroundImageFix" result="effect1_dropShadow_2637_3991"/>
<feBlend mode="normal" in="SourceGraphic" in2="effect1_dropShadow_2637_3991" result="shape"/>
</filter>
<radialGradient id="paint0_radial_2637_3991" cx="0" cy="0" r="1" gradientUnits="userSpaceOnUse" gradientTransform="translate(123.77 16.7076) rotate(133.052) scale(145.609 198.5)">
<stop stop-color="white"/>
<stop offset="1" stop-color="white"/>
</radialGradient>
</defs>
</svg>
