<svg width="139" height="139" viewBox="0 0 139 139" fill="none" xmlns="http://www.w3.org/2000/svg">
<g filter="url(#filter0_d_2637_3944)">
<g filter="url(#filter1_b_2637_3944)">
<path d="M15.5566 25C15.5566 19.4771 20.0338 15 25.5566 15H114C119.523 15 124 19.4772 124 25V113.443C124 118.966 119.523 123.443 114 123.443H25.5566C20.0338 123.443 15.5566 118.966 15.5566 113.443V25Z" fill="black"/>
<path d="M25.5566 15.75H114C119.108 15.75 123.25 19.8914 123.25 25V113.443C123.25 118.552 119.108 122.693 114 122.693H25.5566C20.448 122.693 16.3066 118.552 16.3066 113.443V25C16.3066 19.8914 20.448 15.75 25.5566 15.75Z" stroke="url(#paint0_radial_2637_3944)" stroke-width="1.5"/>
</g>
<path d="M67.8424 38C68.6573 38 69.4733 38 70.2894 38C71.2486 38.1624 72.2176 38.2781 73.1658 38.4934C80.5997 40.1779 86.372 46.5456 87.1624 54.2188C87.3863 56.3906 87.2811 58.5968 87.3251 60.7871C87.33 61.0467 87.3251 61.3075 87.3251 61.6262C88.5951 61.6262 89.7929 61.6213 90.9907 61.6275C92.0306 61.6324 92.5531 62.1344 92.5543 63.1582C92.558 74.0011 92.5628 84.8427 92.5506 95.6856C92.5482 97.4243 91.8899 98.9217 90.4511 99.9049C89.7036 100.417 88.7627 100.643 87.9099 100.999H50.2243C50.1888 100.979 50.1558 100.946 50.1179 100.941C47.4494 100.59 45.542 98.2807 45.5567 95.2562C45.6069 84.6188 45.5763 73.9814 45.5763 63.344C45.5763 62.0987 46.0388 61.6299 47.2635 61.6275C48.4209 61.625 49.5771 61.6275 50.8067 61.6275C50.8067 61.3494 50.8067 61.1304 50.8067 60.9113C50.8067 59.4975 50.814 58.0825 50.8067 56.6687C50.7834 52.5245 51.9531 48.7654 54.4208 45.4382C56.9424 42.0396 60.2495 39.7657 64.3176 38.6583C65.4664 38.3445 66.6654 38.2141 67.8424 38ZM79.4741 61.593C79.4741 59.7005 79.534 57.8388 79.4508 55.9833C79.4055 54.9755 79.2477 53.9346 78.9186 52.9859C77.24 48.1415 72.7461 45.3927 67.6185 45.9931C62.8029 46.5567 58.7654 50.9839 58.6675 55.8356C58.6308 57.6174 58.6492 59.4015 58.6455 61.1845C58.6455 61.3198 58.6749 61.4552 58.692 61.593H79.4753H79.4741ZM69.061 90.5115C69.8355 90.5115 70.6099 90.5115 71.3844 90.5115C71.4052 90.5115 71.4248 90.5115 71.4456 90.5115C72.5247 90.4586 73.074 89.8483 72.9602 88.8122C72.7094 86.5334 72.4464 84.257 72.2127 81.977C72.1931 81.7813 72.2996 81.502 72.4439 81.3691C73.7836 80.1436 74.4027 78.6608 74.2229 76.8237C73.9292 73.8165 71.1128 71.5869 67.9819 72.2575C65.8481 72.714 64.4534 74.1253 63.9848 76.2688C63.5505 78.2536 64.1475 79.9848 65.6818 81.3605C65.8212 81.486 65.9521 81.7321 65.9338 81.9068C65.6989 84.1869 65.4407 86.4632 65.1777 88.7408C65.0517 89.8249 65.5729 90.4684 66.6764 90.5053C67.4705 90.5324 68.2657 90.5103 69.061 90.5103V90.5115Z" fill="url(#paint1_linear_2637_3944)"/>
</g>
<defs>
<filter id="filter0_d_2637_3944" x="0.556641" y="0" width="138.443" height="138.443" filterUnits="userSpaceOnUse" color-interpolation-filters="sRGB">
<feFlood flood-opacity="0" result="BackgroundImageFix"/>
<feColorMatrix in="SourceAlpha" type="matrix" values="0 0 0 0 0 0 0 0 0 0 0 0 0 0 0 0 0 0 127 0" result="hardAlpha"/>
<feOffset/>
<feGaussianBlur stdDeviation="7.5"/>
<feComposite in2="hardAlpha" operator="out"/>
<feColorMatrix type="matrix" values="0 0 0 0 0 0 0 0 0 0 0 0 0 0 0 0 0 0 0.5 0"/>
<feBlend mode="normal" in2="BackgroundImageFix" result="effect1_dropShadow_2637_3944"/>
<feBlend mode="normal" in="SourceGraphic" in2="effect1_dropShadow_2637_3944" result="shape"/>
</filter>
<filter id="filter1_b_2637_3944" x="-54.4434" y="-55" width="248.443" height="248.443" filterUnits="userSpaceOnUse" color-interpolation-filters="sRGB">
<feFlood flood-opacity="0" result="BackgroundImageFix"/>
<feGaussianBlur in="BackgroundImageFix" stdDeviation="35"/>
<feComposite in2="SourceAlpha" operator="in" result="effect1_backgroundBlur_2637_3944"/>
<feBlend mode="normal" in="SourceGraphic" in2="effect1_backgroundBlur_2637_3944" result="shape"/>
</filter>
<radialGradient id="paint0_radial_2637_3944" cx="0" cy="0" r="1" gradientUnits="userSpaceOnUse" gradientTransform="translate(123.326 15.7076) rotate(133.052) scale(145.609 198.5)">
<stop stop-color="white"/>
<stop offset="1" stop-color="white"/>
</radialGradient>
<linearGradient id="paint1_linear_2637_3944" x1="69.0575" y1="38" x2="69.0575" y2="100.999" gradientUnits="userSpaceOnUse">
<stop stop-color="#0185FF"/>
<stop offset="1" stop-color="#014584"/>
<stop offset="1" stop-color="#014584"/>
</linearGradient>
</defs>
</svg>
