<svg width="139" height="139" viewBox="0 0 139 139" fill="none" xmlns="http://www.w3.org/2000/svg">
<g filter="url(#filter0_d_2637_3928)">
<g filter="url(#filter1_b_2637_3928)">
<path d="M15.5566 25C15.5566 19.4771 20.0338 15 25.5566 15H114C119.523 15 124 19.4772 124 25V113.443C124 118.966 119.523 123.443 114 123.443H25.5566C20.0338 123.443 15.5566 118.966 15.5566 113.443V25Z" fill="black"/>
<path d="M25.5566 15.75H114C119.108 15.75 123.25 19.8914 123.25 25V113.443C123.25 118.552 119.108 122.693 114 122.693H25.5566C20.448 122.693 16.3066 118.552 16.3066 113.443V25C16.3066 19.8914 20.448 15.75 25.5566 15.75Z" stroke="url(#paint0_radial_2637_3928)" stroke-width="1.5"/>
</g>
<g clip-path="url(#clip0_2637_3928)">
<path d="M75.6366 82.8347C76.1403 81.8354 76.644 80.836 77.14 79.8531C76.5947 79.0267 76.0461 78.196 75.5293 77.4134C76.4994 77.2853 77.4433 77.2404 78.3445 77.0237C79.6836 76.7019 80.8377 76.0911 81.0633 74.492C81.2286 75.4749 80.9713 76.2991 80.3121 76.993C79.9475 77.3761 79.5643 77.7406 79.1974 78.1204C78.443 78.903 78.2831 79.5663 78.6719 80.2647C79.0584 80.9597 79.884 81.3253 80.7282 81.1764C81.6841 81.0079 82.4254 80.2997 82.5218 79.447C82.5502 79.1953 82.5371 78.9381 82.536 78.683C82.5316 70.4651 82.5262 62.2472 82.5283 54.0293C82.5283 53.8235 82.5699 53.586 82.6773 53.4185C83.5445 52.0624 84.4314 50.7194 85.2471 49.4727C86.099 50.7806 87.0254 52.1795 87.9189 53.598C88.0415 53.7929 88.036 54.0873 88.036 54.3358C88.0338 62.3534 88.0251 70.371 88.0207 78.3886C88.0207 78.7695 88.0218 79.157 88.0886 79.5302C88.2408 80.384 89.0018 80.9586 89.9479 80.9805C90.9049 81.0035 91.6713 80.5208 91.8224 79.6627C91.887 79.2993 91.7699 78.8133 91.5553 78.5101C91.1052 77.8764 90.5271 77.3335 90.0179 76.7402C89.4464 76.0747 89.2788 75.384 89.4354 74.4668C89.4529 74.4723 89.4847 74.4745 89.4858 74.4832C89.8679 76.576 91.5137 76.9777 93.2317 77.259C93.7124 77.3378 94.2084 77.3236 94.7909 77.3575C94.3562 78.0351 93.973 78.7082 93.512 79.3223C93.2503 79.6725 93.2689 79.9243 93.4627 80.2833C93.9335 81.1545 94.3606 82.0499 94.8467 83.0186C94.6617 83 94.6069 83.0087 94.5686 82.989C93.2382 82.317 91.9473 82.4888 90.6486 83.1127C88.5945 84.1 87.0111 85.5645 85.9545 87.5894C85.7552 87.9714 85.5625 88.3578 85.3315 88.8131C85.0643 88.314 84.8442 87.8664 84.5913 87.4373C83.182 85.0391 81.1552 83.4312 78.4616 82.6935C77.7433 82.4965 77.0239 82.5195 76.3166 82.7712C76.1348 82.8358 75.9531 82.8971 75.7713 82.9606C75.7253 82.919 75.6804 82.8785 75.6344 82.8369L75.6366 82.8347Z" fill="url(#paint1_linear_2637_3928)"/>
<path d="M84.4774 96.5549C84.1106 99.4292 83.4723 102.224 82.074 104.82C82.0937 104.683 82.1101 104.546 82.1353 104.411C82.1649 104.25 82.2109 104.092 82.2328 103.93C82.5777 101.411 82.9872 98.8983 83.2292 96.3699C83.3288 95.3224 83.1744 94.218 82.9489 93.1804C82.5426 91.3185 81.3283 90.5119 79.4066 90.5841C80.103 90.2503 80.8005 89.9153 81.4969 89.5815C80.5783 88.6511 78.9796 88.6062 78.1704 89.4863C77.232 90.5053 77.4083 91.3722 78.8373 92.6287C76.6002 93.222 74.7902 94.5256 72.9551 95.8817C73.3055 95.3706 73.6504 94.8551 74.0095 94.3494C74.2198 94.0527 74.4355 93.7561 74.6786 93.4869C75.468 92.6101 75.7856 91.5714 75.7035 90.4188C75.6629 89.8475 75.8688 89.4228 76.1852 88.9707C76.8499 88.0239 77.4642 87.0399 78.0697 86.0537C78.2263 85.7987 78.2722 85.4758 78.3927 85.1113C78.4836 85.304 78.5471 85.4397 78.6117 85.5754C78.9676 86.3197 79.5358 86.855 80.3144 87.0958C83.0518 87.9429 84.5661 89.8705 85.2439 92.5631C85.2527 92.597 85.2746 92.6265 85.233 92.5423C85.6556 91.6579 86.0684 90.6793 86.5809 89.7555C87.2609 88.5285 88.3197 87.7262 89.6654 87.3092C90.7702 86.9677 91.7086 86.4314 92.0579 85.1299C92.2583 85.6422 92.4017 86.092 92.6087 86.5102C92.8167 86.9316 93.085 87.3245 93.3346 87.7251C93.4398 87.8948 93.5482 88.0666 93.6839 88.2122C94.4121 88.9981 94.872 89.8431 94.7406 90.9946C94.6355 91.914 95.1074 92.7064 95.6724 93.431C96.3316 94.276 96.9546 95.1495 97.559 96.0514C95.7447 94.6219 93.9259 93.2176 91.5509 92.6101C92.2419 92.1209 92.9645 91.6524 92.7839 90.7428C92.6831 90.2382 92.4291 89.7008 92.0853 89.3232C91.4031 88.5734 89.7574 88.7376 88.9843 89.5487C89.6205 89.8617 90.2556 90.1736 91.0264 90.5535C90.4308 90.5972 89.9928 90.5742 89.5822 90.6695C88.3613 90.9541 87.632 91.8494 87.4317 93.1859C87.0769 95.5523 87.2138 97.9089 87.6025 100.253C87.8401 101.685 88.139 103.108 88.4073 104.534C88.4204 104.603 88.4095 104.676 88.4095 104.904C87.0868 102.324 86.5272 99.6798 86.0323 96.9905C86.0213 97.1865 86.0115 97.3835 85.9994 97.5794C85.9852 97.7972 85.9611 98.015 85.9546 98.2339C85.8987 99.9612 85.7191 101.701 86.133 103.401C86.3345 104.23 86.7375 105.01 87.0933 105.926C85.856 107.981 85.6731 110.521 85.2275 112.999C84.7238 110.547 84.5366 108.015 83.1854 105.761C84.3723 104.583 84.5661 103.005 84.6504 101.451C84.7326 99.9283 84.6001 98.3937 84.5563 96.8647C84.553 96.7607 84.507 96.6578 84.4807 96.5549H84.4774Z" fill="url(#paint2_linear_2637_3928)"/>
<path d="M85.5714 46.5589C85.4926 47.2792 85.4127 48.0005 85.3338 48.7207C85.2955 48.7251 85.2572 48.7294 85.2189 48.7349C85.105 47.9753 84.9911 47.2168 84.852 46.2908C84.3396 48.5795 83.606 50.6296 82.5307 52.4334C82.0194 48.5839 81.5003 44.6741 80.9824 40.7808C81.2792 41.0479 81.6077 41.3445 81.9657 41.6674C83.0169 36.1235 84.056 30.6452 85.0951 25.167C85.1772 25.1637 85.2605 25.1604 85.3426 25.1582C86.3609 30.6966 87.3803 36.2351 88.4008 41.7834C88.7184 41.455 89.0556 41.1059 89.3918 40.7567L89.4925 40.8092C89.198 42.7433 88.864 44.673 88.6209 46.6137C88.3746 48.5795 88.2191 50.5573 88.0198 52.5571C86.7858 50.7259 86.0828 48.6802 85.5703 46.5589H85.5714Z" fill="url(#paint3_linear_2637_3928)"/>
<path d="M53.8618 88.7451C53.0219 87.4305 52.1569 86.093 51.317 84.7412C51.2141 84.5748 51.2196 84.3242 51.2196 84.1118C51.2196 75.9672 51.2273 67.8227 51.2262 59.6781C51.2262 59.2622 51.2196 58.8342 51.1232 58.4336C50.9141 57.5645 50.0677 56.9581 49.1808 56.9745C48.1876 56.9931 47.4036 57.5043 47.281 58.3559C47.2252 58.7411 47.3478 59.2403 47.5712 59.561C48.0048 60.1838 48.5774 60.7081 49.0746 61.2893C49.6582 61.9701 49.9013 62.7472 49.7031 63.763C49.1523 61.9143 48.1132 61.101 46.151 60.9007C45.5915 60.8438 45.0286 60.8077 44.3454 60.7529C44.7746 60.0426 45.1578 59.3519 45.6002 58.7017C45.805 58.4007 45.8105 58.1895 45.6364 57.8775C45.1546 57.0117 44.7133 56.1219 44.2129 55.1598C44.8907 55.3108 45.4185 55.4827 45.9594 55.5363C47.0894 55.649 48.1022 55.2134 49.0767 54.7143C51.3247 53.5628 52.8686 51.7623 53.8683 49.3203C54.0161 49.6093 54.1191 49.8063 54.2176 50.0055C55.3805 52.3654 57.1412 54.0948 59.5731 55.1357C60.8356 55.6753 62.0839 55.8526 63.3431 55.1094C63.3913 55.1455 63.4394 55.1827 63.4887 55.2189C62.9741 56.2565 62.4595 57.2941 61.9306 58.3602C62.4321 59.1396 62.9686 59.9747 63.5336 60.8525C60.9582 60.7584 58.5132 61.3068 58.0511 63.6579C57.8069 62.9749 58.0358 62.0281 58.6501 61.3276C59.0574 60.8624 59.5162 60.4421 59.9257 59.978C60.7283 59.0684 60.7622 58.2825 60.0582 57.5711C59.4143 56.9209 58.1661 56.899 57.4073 57.5306C56.9003 57.952 56.6682 58.4883 56.6693 59.156C56.6824 66.8266 56.6528 74.4984 56.7185 82.169C56.7317 83.6565 56.4798 84.8988 55.4867 86.0579C54.8144 86.8438 54.3939 87.8454 53.8629 88.7473L53.8618 88.7451Z" fill="url(#paint4_linear_2637_3928)"/>
<path d="M52.0399 32.2022C53.2323 30.0711 53.4743 27.5448 53.9145 25C54.1564 26.3091 54.3711 27.5514 54.6185 28.7883C54.8682 30.0393 55.2328 31.2532 55.9566 32.3685C54.6667 33.9896 54.5955 35.9357 54.5813 37.8906C54.5747 38.7651 54.612 39.6397 54.6426 40.5131C54.6547 40.8491 54.7072 41.1841 54.7828 41.5179C55.1715 38.6436 55.765 35.8394 57.126 33.2464C56.8993 34.504 56.6486 35.7573 56.4493 37.0193C56.0715 39.4142 55.7814 41.8178 56.0639 44.2466C56.1219 44.7469 56.2358 45.2547 56.4143 45.7254C56.9136 47.0487 58.0556 47.6485 59.7156 47.5785C59.0269 47.9079 58.3381 48.2385 57.6494 48.568C58.4673 49.4392 60.0233 49.5366 60.815 48.7573C61.3132 48.2659 61.6154 47.6255 61.3909 46.9787C61.1971 46.4215 60.7252 45.9618 60.3879 45.4769C62.4957 44.8935 64.3178 43.5647 66.1617 42.1812C65.6963 42.8336 65.2879 43.5385 64.7525 44.1273C63.6882 45.2974 63.1549 46.612 63.2808 48.2035C63.3005 48.4563 63.1297 48.7573 62.9742 48.9861C62.5231 49.6461 61.9833 50.2503 61.5749 50.9333C61.1982 51.5637 60.9474 52.2697 60.631 52.9659C60.5719 52.8334 60.5029 52.6594 60.4186 52.4919C60.0813 51.8264 59.5492 51.3525 58.8517 51.1292C56.1898 50.2798 54.6875 48.406 54.0218 45.7692C54.0042 45.7013 53.9736 45.6356 53.9856 45.6685C53.6068 46.4566 53.2411 47.318 52.791 48.1334C52.0377 49.4972 50.9022 50.4123 49.389 50.8501C48.2644 51.1752 47.3895 51.7947 46.9986 53.002C46.6669 51.3448 45.5204 50.1868 44.6127 48.8821C44.432 48.6238 44.3346 48.2407 44.351 47.9233C44.4189 46.6021 44.0357 45.4704 43.1838 44.4513C42.5793 43.7289 42.0757 42.9222 41.5566 42.1134C43.3666 43.5494 45.1941 44.9461 47.5702 45.5371C46.9242 46.0308 46.2256 46.4686 46.3406 47.3289C46.4052 47.8072 46.6099 48.3239 46.9056 48.7015C47.533 49.4994 49.1448 49.4436 50.1784 48.6325C49.4623 48.2735 48.7648 47.9233 47.9808 47.5303C48.4812 47.5303 48.871 47.5818 49.2433 47.5205C50.4806 47.318 51.3051 46.5846 51.5625 45.3675C51.7607 44.4316 51.8636 43.4608 51.8778 42.503C51.9227 39.4864 51.4365 36.5278 50.7599 33.5977C50.7358 33.4948 50.7182 33.3898 50.7325 33.277C52.1023 35.742 52.7385 38.4313 53.1567 41.1961C53.3276 38.9665 53.5663 36.7358 53.0593 34.539C52.8764 33.7488 52.4078 33.0253 52.0388 32.2044L52.0399 32.2022Z" fill="url(#paint5_linear_2637_3928)"/>
<path d="M53.6928 112.99C52.669 107.469 51.6453 101.948 50.6313 96.4719C50.3116 96.7652 49.9546 97.0925 49.5254 97.4854C49.8495 95.5787 50.1999 93.764 50.4561 91.936C50.7156 90.0863 50.881 88.2244 51.0978 86.2849C52.3876 87.907 52.9997 89.7831 53.6096 91.6668C53.6775 90.928 53.7454 90.1902 53.8133 89.4514C53.856 89.4525 53.8976 89.4547 53.9403 89.4558C54.041 90.1815 54.1407 90.9072 54.2414 91.6318C54.7539 89.4908 55.5094 87.4363 56.6022 85.6172C57.0796 89.4689 57.5657 93.3874 58.0464 97.2654C57.7858 97.017 57.4606 96.7083 57.1168 96.3799C56.0547 101.958 55.0035 107.473 53.9523 112.99C53.8669 112.99 53.7815 112.989 53.6961 112.988L53.6928 112.99Z" fill="url(#paint6_linear_2637_3928)"/>
</g>
</g>
<defs>
<filter id="filter0_d_2637_3928" x="0.556641" y="0" width="138.443" height="138.443" filterUnits="userSpaceOnUse" color-interpolation-filters="sRGB">
<feFlood flood-opacity="0" result="BackgroundImageFix"/>
<feColorMatrix in="SourceAlpha" type="matrix" values="0 0 0 0 0 0 0 0 0 0 0 0 0 0 0 0 0 0 127 0" result="hardAlpha"/>
<feOffset/>
<feGaussianBlur stdDeviation="7.5"/>
<feComposite in2="hardAlpha" operator="out"/>
<feColorMatrix type="matrix" values="0 0 0 0 0 0 0 0 0 0 0 0 0 0 0 0 0 0 0.5 0"/>
<feBlend mode="normal" in2="BackgroundImageFix" result="effect1_dropShadow_2637_3928"/>
<feBlend mode="normal" in="SourceGraphic" in2="effect1_dropShadow_2637_3928" result="shape"/>
</filter>
<filter id="filter1_b_2637_3928" x="-54.4434" y="-55" width="248.443" height="248.443" filterUnits="userSpaceOnUse" color-interpolation-filters="sRGB">
<feFlood flood-opacity="0" result="BackgroundImageFix"/>
<feGaussianBlur in="BackgroundImageFix" stdDeviation="35"/>
<feComposite in2="SourceAlpha" operator="in" result="effect1_backgroundBlur_2637_3928"/>
<feBlend mode="normal" in="SourceGraphic" in2="effect1_backgroundBlur_2637_3928" result="shape"/>
</filter>
<radialGradient id="paint0_radial_2637_3928" cx="0" cy="0" r="1" gradientUnits="userSpaceOnUse" gradientTransform="translate(123.326 15.7076) rotate(133.052) scale(145.609 198.5)">
<stop stop-color="white"/>
<stop offset="1" stop-color="white"/>
</radialGradient>
<linearGradient id="paint1_linear_2637_3928" x1="85.188" y1="49.4727" x2="85.188" y2="88.8131" gradientUnits="userSpaceOnUse">
<stop stop-color="#0185FF"/>
<stop offset="1" stop-color="#014584"/>
</linearGradient>
<linearGradient id="paint2_linear_2637_3928" x1="85.2571" y1="85.1113" x2="85.2571" y2="112.999" gradientUnits="userSpaceOnUse">
<stop stop-color="#0185FF"/>
<stop offset="1" stop-color="#014584"/>
</linearGradient>
<linearGradient id="paint3_linear_2637_3928" x1="85.2375" y1="25.1582" x2="85.2375" y2="52.5571" gradientUnits="userSpaceOnUse">
<stop stop-color="#0185FF"/>
<stop offset="1" stop-color="#014584"/>
</linearGradient>
<linearGradient id="paint4_linear_2637_3928" x1="53.8733" y1="49.3203" x2="53.8733" y2="88.7473" gradientUnits="userSpaceOnUse">
<stop stop-color="#0185FF"/>
<stop offset="1" stop-color="#014584"/>
</linearGradient>
<linearGradient id="paint5_linear_2637_3928" x1="53.8592" y1="25" x2="53.8592" y2="53.002" gradientUnits="userSpaceOnUse">
<stop stop-color="#0185FF"/>
<stop offset="1" stop-color="#014584"/>
</linearGradient>
<linearGradient id="paint6_linear_2637_3928" x1="53.7859" y1="85.6172" x2="53.7859" y2="112.99" gradientUnits="userSpaceOnUse">
<stop stop-color="#0185FF"/>
<stop offset="1" stop-color="#014584"/>
</linearGradient>
<clipPath id="clip0_2637_3928">
<rect width="56" height="88" fill="white" transform="translate(41.5566 25)"/>
</clipPath>
</defs>
</svg>
