<svg width="139" height="139" viewBox="0 0 139 139" fill="none" xmlns="http://www.w3.org/2000/svg">
<g filter="url(#filter0_d_2637_3925)">
<g filter="url(#filter1_b_2637_3925)">
<path d="M15 25C15 19.4771 19.4772 15 25 15H113.443C118.966 15 123.443 19.4772 123.443 25V113.443C123.443 118.966 118.966 123.443 113.443 123.443H25C19.4771 123.443 15 118.966 15 113.443V25Z" fill="black"/>
<path d="M25 15.75H113.443C118.552 15.75 122.693 19.8914 122.693 25V113.443C122.693 118.552 118.552 122.693 113.443 122.693H25C19.8914 122.693 15.75 118.552 15.75 113.443V25C15.75 19.8914 19.8914 15.75 25 15.75Z" stroke="url(#paint0_radial_2637_3925)" stroke-width="1.5"/>
</g>
<path d="M30 95.4723C30.504 94.4621 30.9904 93.4749 31.4865 92.4932C32.4761 90.534 33.4745 88.5802 34.4578 86.6184C34.5938 86.3467 34.7633 86.1949 35.0669 86.1213C38.1389 85.3747 41.2064 84.613 44.2757 83.855C44.3181 83.8443 44.3596 83.8328 44.4717 83.8017C44.1 83.1182 43.762 82.4382 43.3656 81.7946C43.1688 81.4741 43.2005 81.2593 43.4124 80.9735C44.3516 79.7085 45.2697 78.4276 46.1983 77.1537C46.2583 77.072 46.336 77.0037 46.4278 76.9052C48.0962 78.1923 49.7567 79.4742 51.4807 80.8039C51.4383 80.6557 51.4286 80.574 51.3933 80.5048C50.4787 78.7267 49.5722 76.9433 48.6391 75.175C48.2525 74.4427 47.7864 73.7618 46.9575 73.4094C47.5613 72.7507 48.1121 72.0779 48.7468 71.4964C48.9737 71.2878 49.3974 71.2736 49.739 71.2177C51.9476 70.8555 54.1589 70.5066 56.4258 70.1436C56.4558 70.3832 56.4805 70.5217 56.4893 70.6611C56.5758 72.0317 56.7012 73.4014 56.7233 74.772C56.7321 75.3277 56.5299 75.8923 56.3896 76.4436C56.3251 76.6966 56.176 76.9274 56.0674 77.1688C55.7434 77.8923 55.8087 78.59 56.2757 79.2185C57.0587 80.2704 57.8699 81.301 58.6706 82.3397C58.803 82.5119 58.9425 82.6779 59.1093 82.8332C58.3899 80.7081 58.0032 78.5296 57.9185 76.2776C61.1281 78.3832 64.5249 80.0307 68.1954 81.0702C68.2122 81.0347 68.2298 80.9992 68.2466 80.9637C67.2967 80.4205 66.3257 79.9091 65.4006 79.3259C63.4886 78.1204 61.6084 76.8626 59.6972 75.6553C59.1367 75.3011 58.9231 74.8306 58.8869 74.1968C58.8118 72.8999 58.7156 71.6038 58.592 70.3104C58.5664 70.0415 58.4367 69.7405 58.261 69.5346C57.2026 68.2909 56.6164 66.8307 56.2395 65.2657C56.1918 65.0668 56.1433 64.8689 56.0833 64.6221C55.3594 64.9851 54.6585 64.9479 53.9762 64.5803C53.2302 64.1782 52.72 63.5568 52.4481 62.7632C51.8558 61.0393 51.2291 59.3234 50.7356 57.5711C50.2174 55.7344 50.8186 54.7136 52.6159 54.0904C52.4879 53.2107 52.3457 52.3266 52.2327 51.4389C52.1136 50.5023 52.0297 49.5623 51.9132 48.6249C51.8814 48.3674 51.832 48.0958 51.7199 47.8659C50.6553 45.6981 50.1813 43.4185 50.4231 41.0057C50.5441 39.802 50.823 38.6382 51.4542 37.4833C51.5548 38.6631 51.6475 39.7505 51.7402 40.838C51.7746 40.8477 51.8099 40.8584 51.8443 40.8681C52.8516 37.1318 54.7698 34.04 58.028 31.8855C57.282 33.5313 56.7339 35.2179 56.642 37.0271C57.38 36.0284 58.0589 34.9996 58.8471 34.0639C60.9569 31.5597 63.5672 29.8545 66.8042 29.1771C68.462 28.8301 70.0509 29.0191 71.6549 29.5171C73.2041 29.9983 74.7771 30.427 76.366 30.7404C77.6593 30.996 78.9763 30.8442 80.2139 30.3409C80.627 30.1731 80.9907 29.8829 81.4153 29.6263C81.5654 32.103 81.8585 34.5788 82.6203 37.083C83.1075 36.6427 83.5366 36.2548 84.0486 35.7923C84.1889 36.514 84.3655 37.2011 84.4484 37.8988C84.6285 39.4194 84.5641 40.9329 84.2048 42.4287C84.1695 42.5752 84.1916 42.7563 84.2454 42.8992C85.0981 45.1841 85.2323 47.4753 84.4855 49.8321C84.2498 50.576 84.2948 51.4087 84.2048 52.1996C84.1333 52.8272 84.0538 53.4539 83.9779 54.0771C84.2666 54.1783 84.5703 54.2475 84.8395 54.3842C85.8626 54.9035 86.3216 55.943 86.1159 57.2391C85.7876 59.3065 85.0319 61.2444 84.2481 63.1627C83.827 64.1933 82.999 64.8262 81.8302 64.8573C81.5892 64.8635 81.3447 64.7765 81.1055 64.7321C80.9607 65.4965 80.8919 66.2954 80.6465 67.034C80.3949 67.7903 79.9314 68.4729 79.634 69.2168C79.4662 69.6376 79.408 70.1143 79.3665 70.5714C79.2526 71.8213 79.1546 73.073 79.0884 74.3255C79.0602 74.8572 78.8845 75.254 78.4325 75.5434C76.1471 77.0081 73.8697 78.487 71.5807 79.9482C71.0149 80.3095 70.4181 80.6211 69.8293 80.9593C71.0149 81.1111 76.8383 78.4364 80.1336 76.2003C79.9826 77.3943 79.8908 78.4862 79.6957 79.5585C79.5015 80.6255 79.2032 81.6739 78.9331 82.8013C79.1237 82.5749 79.2888 82.3911 79.4406 82.1958C80.176 81.2558 80.906 80.3122 81.6404 79.3712C82.2336 78.6104 82.3554 77.808 81.8593 76.9487C81.2882 75.9598 81.2132 74.8963 81.3235 73.7805C81.4197 72.812 81.4268 71.8337 81.4745 70.8599C81.4833 70.6709 81.4965 70.4827 81.5124 70.2217C82.3095 70.3158 83.0669 70.3806 83.8155 70.4986C85.4927 70.7649 87.1664 71.0552 88.8401 71.3446C88.9919 71.3712 89.1729 71.421 89.2735 71.5248C89.8649 72.1382 90.4361 72.7711 91.0372 73.4227C90.1863 73.8319 89.7131 74.5776 89.3026 75.3615C88.3961 77.0951 87.516 78.843 86.6262 80.5865C86.6006 80.6371 86.5873 80.6939 86.522 80.8767C88.2742 79.5106 89.9303 78.219 91.6322 76.891C91.9261 77.262 92.2298 77.6153 92.4999 77.9935C93.2211 78.9992 93.9203 80.021 94.6459 81.0232C94.8339 81.2833 94.8533 81.4875 94.6865 81.7698C94.2972 82.4266 93.9432 83.1048 93.5698 83.7839C94.9504 84.1 96.3045 84.3849 97.6463 84.7231C99.4489 85.1785 101.242 85.6703 103.034 86.1639C103.195 86.2082 103.381 86.3503 103.456 86.4985C104.969 89.4634 106.468 92.4355 107.969 95.4066C107.981 95.4314 107.981 95.4625 108 95.5513C107.051 96.1487 106.097 96.7772 105.116 97.3613C97.6887 101.786 89.8579 105.28 81.5398 107.643C78.2392 108.58 74.8839 109.256 71.5021 109.822C69.4974 110.157 67.5307 109.975 65.556 109.639C60.3593 108.757 55.2932 107.383 50.3437 105.571C43.7019 103.14 37.3515 100.1 31.3427 96.3502C30.8969 96.0724 30.4652 95.7732 30 95.4661L30 95.4723ZM69.0596 95.6161C67.5881 94.233 66.1103 92.8607 64.6538 91.467C63.9132 90.7586 63.1196 90.1647 62.153 89.783C60.8042 89.2504 59.4845 88.6459 58.1515 88.0733C57.7834 87.9153 57.4136 87.7608 57.0154 87.5913C56.7436 88.2979 56.492 88.953 56.2289 89.6357C56.4046 89.7218 56.5582 89.8008 56.7153 89.8736C58.1109 90.5225 59.5233 91.1385 60.8969 91.8327C61.5166 92.1452 62.1177 92.5482 62.6253 93.0213C64.4349 94.7097 66.1986 96.4479 67.9826 98.1638C68.3278 98.4958 68.6844 98.8162 69.0393 99.1447C70.63 97.6054 72.1889 96.1016 73.7416 94.5926C75.0269 93.3436 76.2398 92.0031 78.0124 91.4084C78.4405 91.2646 78.843 91.0391 79.2553 90.8474C80.1142 90.4479 80.9722 90.0458 81.8567 89.6321C81.5786 88.9379 81.3156 88.2775 81.0499 87.6144C79.6022 88.2491 78.2339 88.9299 76.8092 89.4537C75.0817 90.0893 73.6799 91.1421 72.4034 92.4363C71.3291 93.5264 70.1868 94.5482 69.0596 95.6161ZM76.5779 38.7146C73.129 41.7061 69.0181 43.2605 64.6732 44.3337C67.378 44.2991 70.0659 44.2441 72.7486 44.0914C74.1301 44.0133 75.4242 43.5659 76.4649 42.5752C77.0925 41.9778 77.5931 41.2996 77.8438 40.3684C76.7792 41.0679 75.7075 41.5348 74.439 41.8357C75.3694 40.8584 76.1251 39.897 76.5779 38.7146ZM81.9494 59.0935C81.9644 59.0944 81.9794 59.0961 81.9944 59.097C82.0209 58.8804 82.058 58.6647 82.0739 58.4472C82.1718 57.0793 82.291 55.7122 82.3554 54.3416C82.4596 52.1313 82.5549 49.92 82.5991 47.7079C82.6185 46.7545 82.3413 45.8437 81.8205 45.0288C81.237 44.1153 79.7805 43.3901 78.8607 43.5641C78.9472 43.6928 79.0275 43.8135 79.1105 43.9334C80.1248 45.3936 81.0207 46.9187 81.2414 48.7234C81.4189 50.1703 81.5319 51.6279 81.6263 53.0829C81.757 55.0846 81.8435 57.0891 81.9485 59.0926L81.9494 59.0935ZM54.5738 59.0748L54.6532 59.0802C54.6771 58.8369 54.7106 58.5937 54.7238 58.3496C54.8739 55.667 55.031 52.9852 55.1643 50.3026C55.2694 48.1748 55.8688 46.2245 57.1214 44.49C57.3403 44.1872 57.5266 43.8606 57.7481 43.5135C55.807 43.7114 54.8218 44.6453 54.3655 45.9174C54.023 46.8699 53.9559 47.8481 53.9876 48.837C54.0468 50.6674 54.1156 52.4979 54.2189 54.3257C54.309 55.9102 54.4537 57.4921 54.5738 59.0748Z" fill="url(#paint1_linear_2637_3925)"/>
</g>
<defs>
<filter id="filter0_d_2637_3925" x="0" y="0" width="138.443" height="138.443" filterUnits="userSpaceOnUse" color-interpolation-filters="sRGB">
<feFlood flood-opacity="0" result="BackgroundImageFix"/>
<feColorMatrix in="SourceAlpha" type="matrix" values="0 0 0 0 0 0 0 0 0 0 0 0 0 0 0 0 0 0 127 0" result="hardAlpha"/>
<feOffset/>
<feGaussianBlur stdDeviation="7.5"/>
<feComposite in2="hardAlpha" operator="out"/>
<feColorMatrix type="matrix" values="0 0 0 0 0 0 0 0 0 0 0 0 0 0 0 0 0 0 0.5 0"/>
<feBlend mode="normal" in2="BackgroundImageFix" result="effect1_dropShadow_2637_3925"/>
<feBlend mode="normal" in="SourceGraphic" in2="effect1_dropShadow_2637_3925" result="shape"/>
</filter>
<filter id="filter1_b_2637_3925" x="-55" y="-55" width="248.443" height="248.443" filterUnits="userSpaceOnUse" color-interpolation-filters="sRGB">
<feFlood flood-opacity="0" result="BackgroundImageFix"/>
<feGaussianBlur in="BackgroundImageFix" stdDeviation="35"/>
<feComposite in2="SourceAlpha" operator="in" result="effect1_backgroundBlur_2637_3925"/>
<feBlend mode="normal" in="SourceGraphic" in2="effect1_backgroundBlur_2637_3925" result="shape"/>
</filter>
<radialGradient id="paint0_radial_2637_3925" cx="0" cy="0" r="1" gradientUnits="userSpaceOnUse" gradientTransform="translate(122.77 15.7076) rotate(133.052) scale(145.609 198.5)">
<stop stop-color="white"/>
<stop offset="1" stop-color="white"/>
</radialGradient>
<linearGradient id="paint1_linear_2637_3925" x1="68.5566" y1="34.5" x2="64.5566" y2="104" gradientUnits="userSpaceOnUse">
<stop stop-color="#0185FF"/>
<stop offset="1" stop-color="#014584"/>
</linearGradient>
</defs>
</svg>
