<svg width="139" height="139" viewBox="0 0 139 139" fill="none" xmlns="http://www.w3.org/2000/svg">
<g filter="url(#filter0_d_2637_3939)">
<g filter="url(#filter1_b_2637_3939)">
<path d="M15.5566 25C15.5566 19.4771 20.0338 15 25.5566 15H114C119.523 15 124 19.4772 124 25V113.443C124 118.966 119.523 123.443 114 123.443H25.5566C20.0338 123.443 15.5566 118.966 15.5566 113.443V25Z" fill="black"/>
<path d="M25.5566 15.75H114C119.108 15.75 123.25 19.8914 123.25 25V113.443C123.25 118.552 119.108 122.693 114 122.693H25.5566C20.448 122.693 16.3066 118.552 16.3066 113.443V25C16.3066 19.8914 20.448 15.75 25.5566 15.75Z" stroke="url(#paint0_radial_2637_3939)" stroke-width="1.5"/>
</g>
<path d="M108.555 102.686C106.64 102.686 104.924 102.686 103.206 102.686C95.1579 102.686 87.1082 102.685 79.0598 102.696C78.8105 102.696 78.4333 102.774 78.3315 102.945C77.3343 104.613 75.7026 105.154 73.947 105.547C70.7347 106.268 67.5759 106.132 64.4472 105.114C63.3964 104.772 62.5258 104.199 61.9685 103.233C61.7191 102.8 61.3993 102.674 60.9086 102.675C51.3147 102.696 41.7222 102.7 32.1284 102.707C32.003 102.707 31.879 102.707 31.5566 102.707C34.1529 99.7579 36.6407 96.9342 39.1573 94.0766C37.2398 92.0382 35.3159 89.9933 33.3096 87.8625C36.9449 87.3572 40.4456 86.8974 43.9921 87.0537C47.7121 87.2178 51.3774 87.7271 54.899 88.9878C59.7886 90.7384 63.7958 93.6311 66.5278 98.1259C66.5604 98.1806 66.6048 98.2275 66.7119 98.2523C66.6583 98.1064 66.6192 97.9527 66.5487 97.8146C64.8518 94.4907 62.3313 91.891 59.3031 89.7745C54.9591 86.7411 50.1347 84.9372 44.8562 84.3967C43.4099 84.2482 41.9506 84.2339 40.4991 84.1323C40.2433 84.114 39.9222 84.0398 39.7564 83.8705C37.6784 81.7397 35.6239 79.5867 33.5642 77.4376C33.495 77.3647 33.4506 77.2683 33.2731 77C36.8222 77.4025 40.2133 77.7046 43.577 78.1878C48.1612 78.8469 52.4921 80.3291 56.5554 82.5693C63.2163 86.241 67.7652 91.6188 69.8811 98.966C69.9463 99.1913 70.0168 99.4167 70.0873 99.6394C70.0912 99.6524 70.1252 99.6563 70.1617 99.6719C71.1851 95.8479 72.8637 92.356 75.4246 89.3096C78.5482 85.5936 82.4588 82.9601 86.8837 81.0454C90.3244 79.5567 93.9375 78.6619 97.6419 78.1579C100.651 77.7489 103.671 77.4246 106.831 77.0456C106.66 77.297 106.593 77.4207 106.502 77.5236C104.625 79.6583 102.755 81.7996 100.852 83.9109C100.674 84.1075 100.292 84.2078 100.006 84.2078C95.2845 84.2026 90.7278 85.0284 86.3773 86.8753C81.8597 88.7938 77.9543 91.5289 75.0644 95.5549C74.4417 96.4223 73.9549 97.3887 73.4067 98.3083C73.4523 98.3421 73.498 98.3773 73.5437 98.4112C73.5803 98.3864 73.6325 98.3708 73.6534 98.3369C76.5915 93.3667 81.0856 90.4414 86.4608 88.7248C91.2851 87.1839 96.2556 86.9 101.276 87.2465C103.136 87.3754 104.992 87.5669 106.998 87.744C104.961 89.9647 103.031 92.0682 101.096 94.1769C103.557 96.9837 105.994 99.7631 108.557 102.683L108.555 102.686Z" fill="url(#paint1_linear_2637_3939)"/>
<path d="M55.0618 51.616C53.4882 55.4959 53.3067 59.3929 54.8496 63.4667C54.9937 62.9695 55.0965 62.595 55.2112 62.2257C55.8972 60.0352 57.2639 58.2588 58.76 56.5681C60.8821 54.1705 62.9748 51.7532 64.5643 48.9574C66.2233 46.0415 67.1348 42.8738 67.8288 39.6309C68.2999 37.4285 68.7484 35.2222 69.3289 33C69.4918 33.753 69.6773 34.5008 69.8147 35.2591C70.9585 41.588 73.888 47.024 78.1909 51.798C80.4504 54.305 82.6472 56.8688 84.8533 59.4233C85.2337 59.8624 85.5193 60.3807 85.9517 61.0137C86.1399 56.2437 84.1353 52.3084 82.0613 48.3929C82.1187 48.3599 82.1761 48.327 82.2335 48.294C83.0943 49.3108 83.9938 50.2986 84.8106 51.3496C87.3945 54.6769 89.3737 58.3089 90.1558 62.471C90.9339 66.6107 90.6803 70.6567 88.4929 74.3915C86.7992 77.2823 84.162 79.0917 81.1017 80.3564C79.8164 80.8879 78.5165 81.3864 77.2273 81.9086C73.4142 83.4529 71.2375 86.287 70.4981 90.2513C70.394 90.8105 70.2859 91.3683 70.1644 92C69.9602 91.0861 69.7921 90.2341 69.5785 89.3928C68.7284 86.0338 66.669 83.6916 63.4446 82.3517C62.1607 81.8176 60.8501 81.3429 59.5848 80.7666C54.6907 78.5365 51.4129 74.9164 50.0155 69.7243C49.1213 66.4023 49.6432 63.1554 50.6442 59.9521C51.5931 56.9136 53.0465 54.1257 55.0631 51.6147L55.0618 51.616ZM69.2142 46.4015C69.1047 47.293 69.0086 48.4087 68.8245 49.5099C68.3253 52.4878 66.9546 55.1016 65.313 57.6007C64.2026 59.2914 63.0308 60.9504 62.0379 62.707C59.7223 66.8045 59.9198 70.8282 62.8079 74.5893C63.7689 75.8396 64.9741 76.9131 66.1125 78.0208C67.674 79.5414 69.1728 81.0936 69.7373 83.2775C69.8575 83.7417 69.9455 84.2139 70.0803 84.8258C70.1617 84.5844 70.2071 84.4882 70.2271 84.3879C70.6542 82.237 71.6592 80.3999 73.2554 78.8728C74.2457 77.9246 75.228 76.9684 76.1929 75.9952C78.351 73.8152 79.4614 71.2554 79.2038 68.1457C78.965 65.2589 78.1548 62.529 76.8015 60.0035C74.3178 55.368 71.6846 50.8103 69.2155 46.4015H69.2142Z" fill="url(#paint2_linear_2637_3939)"/>
</g>
<defs>
<filter id="filter0_d_2637_3939" x="0.556641" y="0" width="138.443" height="138.443" filterUnits="userSpaceOnUse" color-interpolation-filters="sRGB">
<feFlood flood-opacity="0" result="BackgroundImageFix"/>
<feColorMatrix in="SourceAlpha" type="matrix" values="0 0 0 0 0 0 0 0 0 0 0 0 0 0 0 0 0 0 127 0" result="hardAlpha"/>
<feOffset/>
<feGaussianBlur stdDeviation="7.5"/>
<feComposite in2="hardAlpha" operator="out"/>
<feColorMatrix type="matrix" values="0 0 0 0 0 0 0 0 0 0 0 0 0 0 0 0 0 0 0.5 0"/>
<feBlend mode="normal" in2="BackgroundImageFix" result="effect1_dropShadow_2637_3939"/>
<feBlend mode="normal" in="SourceGraphic" in2="effect1_dropShadow_2637_3939" result="shape"/>
</filter>
<filter id="filter1_b_2637_3939" x="-54.4434" y="-55" width="248.443" height="248.443" filterUnits="userSpaceOnUse" color-interpolation-filters="sRGB">
<feFlood flood-opacity="0" result="BackgroundImageFix"/>
<feGaussianBlur in="BackgroundImageFix" stdDeviation="35"/>
<feComposite in2="SourceAlpha" operator="in" result="effect1_backgroundBlur_2637_3939"/>
<feBlend mode="normal" in="SourceGraphic" in2="effect1_backgroundBlur_2637_3939" result="shape"/>
</filter>
<radialGradient id="paint0_radial_2637_3939" cx="0" cy="0" r="1" gradientUnits="userSpaceOnUse" gradientTransform="translate(123.326 15.7076) rotate(133.052) scale(145.609 198.5)">
<stop stop-color="white"/>
<stop offset="1" stop-color="white"/>
</radialGradient>
<linearGradient id="paint1_linear_2637_3939" x1="70.0566" y1="77" x2="70.0566" y2="106" gradientUnits="userSpaceOnUse">
<stop stop-color="#0185FF"/>
<stop offset="1" stop-color="#014584"/>
</linearGradient>
<linearGradient id="paint2_linear_2637_3939" x1="70.0566" y1="33" x2="70.0566" y2="92" gradientUnits="userSpaceOnUse">
<stop stop-color="#0185FF"/>
<stop offset="1" stop-color="#014584"/>
</linearGradient>
</defs>
</svg>
