<svg width="139" height="139" viewBox="0 0 139 139" fill="none" xmlns="http://www.w3.org/2000/svg">
<g filter="url(#filter0_d_2654_751)">
<g filter="url(#filter1_b_2654_751)">
<path d="M15 25C15 19.4771 19.4772 15 25 15H113.443C118.966 15 123.443 19.4772 123.443 25V113.443C123.443 118.966 118.966 123.443 113.443 123.443H25C19.4771 123.443 15 118.966 15 113.443V25Z" fill="black"/>
<path d="M25 15.75H113.443C118.552 15.75 122.693 19.8914 122.693 25V113.443C122.693 118.552 118.552 122.693 113.443 122.693H25C19.8914 122.693 15.75 118.552 15.75 113.443V25C15.75 19.8914 19.8914 15.75 25 15.75Z" stroke="url(#paint0_radial_2654_751)" stroke-width="1.5"/>
</g>
</g>
<g clip-path="url(#clip0_2654_751)">
<path d="M39.2448 86.0253C35.4858 77.7652 31.7429 69.5387 28 61.3121C28.0365 61.2815 28.0745 61.2508 28.111 61.2201C33.3514 64.9046 38.5932 68.5905 43.8599 72.294C46.0513 63.7461 46.1156 55.0155 46.2398 46.2762C49.2916 52.8986 52.6547 59.3311 56.9309 65.3794C62.8564 56.4107 66.3802 46.5684 68.5321 36C70.725 46.5114 74.0808 56.4019 80.0049 65.3677C84.262 59.3311 87.6616 52.8752 90.8055 46.2543C90.9049 54.9951 91.1079 63.7095 93.2263 72.2925C98.4491 68.611 103.687 64.9192 108.923 61.2289C108.949 61.2493 108.974 61.2712 109 61.2917C105.247 69.5124 101.492 77.7316 97.7084 86.0194C96.547 85.3211 95.4498 84.6608 94.2563 83.9435C97.0861 79.0376 99.894 74.1669 102.703 69.2961C102.686 69.2801 102.668 69.264 102.651 69.2479C98.5003 73.3137 94.3498 77.3795 90.1393 81.5052C89.219 78.839 88.433 76.1771 87.9742 73.4379C87.517 70.7118 87.1839 67.9652 86.826 65.4349C84.5235 69.115 82.0852 73.0098 79.6002 76.9792C74.6155 70.928 71.4861 64.0528 68.5687 56.941C65.6307 64.0777 62.5146 70.9645 57.4831 76.8536C54.757 73.1428 52.4049 69.1793 50.0645 65.1763C49.9461 70.8214 48.6269 76.2107 46.8519 81.5534C42.6926 77.4365 38.5772 73.3634 34.4617 69.2903C34.4413 69.3122 34.4193 69.3356 34.3989 69.3575C37.1717 74.2107 39.9461 79.0639 42.7379 83.9493C41.5414 84.6608 40.4238 85.327 39.2477 86.0268L39.2448 86.0253Z" fill="url(#paint1_linear_2654_751)"/>
<path d="M38.5176 89.7445C40.0647 88.5012 41.682 87.5998 43.362 86.8007C47.2949 84.9307 51.4308 83.7079 55.7128 82.957C61.165 82.0015 64.7691 78.9102 66.4097 73.6084C67.1709 71.1468 67.8502 68.6603 68.5763 66.1445C68.7662 66.8911 68.9342 67.6449 69.1519 68.3841C69.7786 70.5113 70.3279 72.6691 71.0847 74.7509C72.8086 79.4989 76.3645 82.0877 81.244 82.9394C86.9446 83.9343 92.3588 85.6874 97.2851 88.789C97.6386 89.0111 97.9688 89.2696 98.3063 89.5165C98.3633 89.5575 98.4042 89.6188 98.5035 89.7255C96.3282 89.9709 95.0893 91.2843 94.3267 93.1747C94.2712 93.166 94.2113 93.1747 94.1704 93.1499C90.7474 91.1367 86.9753 90.1389 83.1155 89.464C80.8364 89.0651 78.5165 88.9059 76.2301 88.5421C73.1432 88.0512 70.4916 86.732 68.5894 84.2017C67.8517 84.8942 67.1636 85.6524 66.3644 86.266C64.2987 87.8555 61.8911 88.5553 59.3257 88.7539C54.2591 89.1455 49.3153 90.0615 44.6564 92.1842C44.0048 92.4808 43.3854 92.8446 42.7514 93.1776C41.5329 90.8241 40.4402 89.9154 38.5176 89.743V89.7445Z" fill="url(#paint2_linear_2654_751)"/>
<path d="M45.6882 101.202C44.8087 98.3487 43.6385 97.3246 41.0088 97.2734C41.187 97.1463 41.2849 97.0601 41.3974 96.9988C44.122 95.5159 47.0644 94.6525 50.0651 93.9629C54.2083 93.0119 58.4085 92.5385 62.654 92.4114C64.8278 92.3472 66.7855 92.8745 68.4773 94.3545C69.5116 93.4341 70.7008 92.784 72.0565 92.6043C73.2355 92.448 74.4452 92.3983 75.6344 92.4553C78.9945 92.616 82.3342 92.9885 85.633 93.6751C88.888 94.353 92.0859 95.2106 95.0838 96.692C95.3847 96.841 95.6725 97.0119 96.1371 97.2661C93.2079 97.2208 91.8361 98.7884 91.2591 101.348C89.5176 100.286 87.5877 99.8067 85.6374 99.4356C81.7995 98.7051 77.9295 98.2669 74.0186 98.5926C71.9411 98.765 70.0843 99.5437 68.5182 101C66.3954 99.0105 63.8067 98.4539 61.0323 98.4758C57.1433 98.5079 53.2865 98.8527 49.5187 99.852C48.2127 100.198 46.9606 100.748 45.6867 101.202H45.6882Z" fill="url(#paint3_linear_2654_751)"/>
<path d="M85.4891 71.5391C85.3634 72.8466 85.1326 74.2447 85.1209 75.6457C85.1078 77.0555 85.3123 78.4668 85.4087 79.7028C83.7798 77.7816 83.7593 73.7071 85.4905 71.5405L85.4891 71.5391Z" fill="url(#paint4_linear_2654_751)"/>
<path d="M51.3262 71.2344C53.2152 73.9035 53.2882 77.3016 51.4197 80.019C52.1545 77.0314 52.0654 74.2001 51.3262 71.2344Z" fill="url(#paint5_linear_2654_751)"/>
</g>
<defs>
<filter id="filter0_d_2654_751" x="0" y="0" width="138.443" height="138.443" filterUnits="userSpaceOnUse" color-interpolation-filters="sRGB">
<feFlood flood-opacity="0" result="BackgroundImageFix"/>
<feColorMatrix in="SourceAlpha" type="matrix" values="0 0 0 0 0 0 0 0 0 0 0 0 0 0 0 0 0 0 127 0" result="hardAlpha"/>
<feOffset/>
<feGaussianBlur stdDeviation="7.5"/>
<feComposite in2="hardAlpha" operator="out"/>
<feColorMatrix type="matrix" values="0 0 0 0 0 0 0 0 0 0 0 0 0 0 0 0 0 0 0.5 0"/>
<feBlend mode="normal" in2="BackgroundImageFix" result="effect1_dropShadow_2654_751"/>
<feBlend mode="normal" in="SourceGraphic" in2="effect1_dropShadow_2654_751" result="shape"/>
</filter>
<filter id="filter1_b_2654_751" x="-55" y="-55" width="248.443" height="248.443" filterUnits="userSpaceOnUse" color-interpolation-filters="sRGB">
<feFlood flood-opacity="0" result="BackgroundImageFix"/>
<feGaussianBlur in="BackgroundImageFix" stdDeviation="35"/>
<feComposite in2="SourceAlpha" operator="in" result="effect1_backgroundBlur_2654_751"/>
<feBlend mode="normal" in="SourceGraphic" in2="effect1_backgroundBlur_2654_751" result="shape"/>
</filter>
<radialGradient id="paint0_radial_2654_751" cx="0" cy="0" r="1" gradientUnits="userSpaceOnUse" gradientTransform="translate(122.77 15.7076) rotate(133.052) scale(145.609 198.5)">
<stop stop-color="white"/>
<stop offset="1" stop-color="white"/>
</radialGradient>
<linearGradient id="paint1_linear_2654_751" x1="68.5" y1="36" x2="68.5" y2="86.0267" gradientUnits="userSpaceOnUse">
<stop stop-color="#2454C0"/>
<stop offset="1" stop-color="#2454C0"/>
</linearGradient>
<linearGradient id="paint2_linear_2654_751" x1="68.5105" y1="66.1445" x2="68.5105" y2="93.1776" gradientUnits="userSpaceOnUse">
<stop stop-color="#168FFF"/>
<stop offset="1" stop-color="#2454C0"/>
</linearGradient>
<linearGradient id="paint3_linear_2654_751" x1="68.573" y1="92.4062" x2="68.573" y2="101.348" gradientUnits="userSpaceOnUse">
<stop stop-color="#168FFF"/>
<stop offset="1" stop-color="#2454C0"/>
</linearGradient>
<linearGradient id="paint4_linear_2654_751" x1="84.84" y1="71.5391" x2="84.84" y2="79.7028" gradientUnits="userSpaceOnUse">
<stop stop-color="#168FFF"/>
<stop offset="1" stop-color="#2454C0"/>
</linearGradient>
<linearGradient id="paint5_linear_2654_751" x1="52.0544" y1="71.2344" x2="52.0544" y2="80.019" gradientUnits="userSpaceOnUse">
<stop stop-color="#168FFF"/>
<stop offset="1" stop-color="#2454C0"/>
</linearGradient>
<clipPath id="clip0_2654_751">
<rect width="81" height="65.3476" fill="white" transform="translate(28 36)"/>
</clipPath>
</defs>
</svg>
