<svg width="141" height="141" viewBox="0 0 141 141" fill="none" xmlns="http://www.w3.org/2000/svg">
<g filter="url(#filter0_d_2637_3961)">
<g filter="url(#filter1_d_2637_3961)">
<path d="M16 26C16 20.4771 20.4772 16 26 16H114.443C119.966 16 124.443 20.4772 124.443 26V114.443C124.443 119.966 119.966 124.443 114.443 124.443H26C20.4771 124.443 16 119.966 16 114.443V26Z" fill="#0185FF"/>
<path d="M26 16.75H114.443C119.552 16.75 123.693 20.8914 123.693 26V114.443C123.693 119.552 119.552 123.693 114.443 123.693H26C20.8914 123.693 16.75 119.552 16.75 114.443V26C16.75 20.8914 20.8914 16.75 26 16.75Z" stroke="url(#paint0_radial_2637_3961)" stroke-width="1.5"/>
</g>
<g clip-path="url(#clip0_2637_3961)">
<path d="M40.2448 84.0253C36.4858 75.7652 32.7429 67.5387 29 59.3121C29.0365 59.2815 29.0745 59.2508 29.111 59.2201C34.3514 62.9046 39.5932 66.5905 44.8599 70.294C47.0513 61.7461 47.1156 53.0155 47.2398 44.2762C50.2916 50.8986 53.6547 57.3311 57.9309 63.3794C63.8564 54.4107 67.3802 44.5684 69.5321 34C71.725 44.5114 75.0808 54.4019 81.0049 63.3677C85.262 57.3311 88.6616 50.8752 91.8055 44.2543C91.9049 52.9951 92.1079 61.7095 94.2263 70.2925C99.4491 66.611 104.687 62.9192 109.923 59.2289C109.949 59.2493 109.974 59.2712 110 59.2917C106.247 67.5124 102.492 75.7316 98.7084 84.0194C97.547 83.3211 96.4498 82.6608 95.2563 81.9435C98.0861 77.0376 100.894 72.1669 103.703 67.2961C103.686 67.2801 103.668 67.264 103.651 67.2479C99.5003 71.3137 95.3498 75.3795 91.1393 79.5052C90.219 76.839 89.433 74.1771 88.9742 71.4379C88.517 68.7118 88.1839 65.9652 87.826 63.4349C85.5235 67.115 83.0852 71.0098 80.6002 74.9792C75.6155 68.928 72.4861 62.0528 69.5687 54.941C66.6307 62.0777 63.5146 68.9645 58.4831 74.8536C55.757 71.1428 53.4049 67.1793 51.0645 63.1763C50.9461 68.8214 49.6269 74.2107 47.8519 79.5534C43.6926 75.4365 39.5772 71.3634 35.4617 67.2903C35.4413 67.3122 35.4193 67.3356 35.3989 67.3575C38.1717 72.2107 40.9461 77.0639 43.7379 81.9493C42.5414 82.6608 41.4238 83.327 40.2477 84.0268L40.2448 84.0253Z" fill="black"/>
<path d="M39.5176 87.7445C41.0647 86.5012 42.682 85.5998 44.362 84.8007C48.2949 82.9307 52.4308 81.7079 56.7128 80.957C62.165 80.0015 65.7691 76.9102 67.4097 71.6084C68.1709 69.1468 68.8502 66.6603 69.5763 64.1445C69.7662 64.8911 69.9342 65.6449 70.1519 66.3841C70.7786 68.5113 71.3279 70.6691 72.0847 72.7509C73.8086 77.4989 77.3645 80.0877 82.244 80.9394C87.9446 81.9343 93.3588 83.6874 98.2851 86.789C98.6386 87.0111 98.9688 87.2696 99.3063 87.5165C99.3633 87.5575 99.4042 87.6188 99.5035 87.7255C97.3282 87.9709 96.0893 89.2843 95.3267 91.1747C95.2712 91.166 95.2113 91.1747 95.1704 91.1499C91.7474 89.1367 87.9753 88.1389 84.1155 87.464C81.8364 87.0651 79.5165 86.9059 77.2301 86.5421C74.1432 86.0512 71.4916 84.732 69.5894 82.2017C68.8517 82.8942 68.1636 83.6524 67.3644 84.266C65.2987 85.8555 62.8911 86.5553 60.3257 86.7539C55.2591 87.1455 50.3153 88.0615 45.6564 90.1842C45.0048 90.4808 44.3854 90.8446 43.7514 91.1776C42.5329 88.8241 41.4402 87.9154 39.5176 87.743V87.7445Z" fill="url(#paint1_linear_2637_3961)"/>
<path d="M46.6882 99.2019C45.8087 96.3487 44.6385 95.3246 42.0088 95.2734C42.187 95.1463 42.2849 95.0601 42.3974 94.9988C45.122 93.5159 48.0644 92.6525 51.0651 91.9629C55.2083 91.0119 59.4085 90.5385 63.654 90.4114C65.8278 90.3472 67.7855 90.8745 69.4773 92.3545C70.5116 91.4341 71.7008 90.784 73.0565 90.6043C74.2355 90.448 75.4452 90.3983 76.6344 90.4553C79.9945 90.616 83.3342 90.9885 86.633 91.6751C89.888 92.353 93.0859 93.2106 96.0838 94.692C96.3847 94.841 96.6725 95.0119 97.1371 95.2661C94.2079 95.2208 92.8361 96.7884 92.2591 99.348C90.5176 98.2859 88.5877 97.8067 86.6374 97.4356C82.7995 96.7051 78.9295 96.2669 75.0186 96.5926C72.9411 96.765 71.0843 97.5437 69.5182 99.0003C67.3954 97.0105 64.8067 96.4539 62.0323 96.4758C58.1433 96.5079 54.2865 96.8527 50.5187 97.852C49.2127 98.1982 47.9606 98.7475 46.6867 99.2019H46.6882Z" fill="url(#paint2_linear_2637_3961)"/>
<path d="M86.4891 69.5391C86.3634 70.8466 86.1326 72.2447 86.1209 73.6457C86.1078 75.0555 86.3123 76.4668 86.4087 77.7028C84.7798 75.7816 84.7593 71.7071 86.4905 69.5405L86.4891 69.5391Z" fill="url(#paint3_linear_2637_3961)"/>
<path d="M52.3262 69.2344C54.2152 71.9035 54.2882 75.3016 52.4197 78.019C53.1545 75.0314 53.0654 72.2001 52.3262 69.2344Z" fill="url(#paint4_linear_2637_3961)"/>
</g>
</g>
<defs>
<filter id="filter0_d_2637_3961" x="6" y="6" width="128.443" height="128.443" filterUnits="userSpaceOnUse" color-interpolation-filters="sRGB">
<feFlood flood-opacity="0" result="BackgroundImageFix"/>
<feColorMatrix in="SourceAlpha" type="matrix" values="0 0 0 0 0 0 0 0 0 0 0 0 0 0 0 0 0 0 127 0" result="hardAlpha"/>
<feOffset/>
<feGaussianBlur stdDeviation="5"/>
<feComposite in2="hardAlpha" operator="out"/>
<feColorMatrix type="matrix" values="0 0 0 0 0.0875 0 0 0 0 0.562 0 0 0 0 1 0 0 0 1 0"/>
<feBlend mode="normal" in2="BackgroundImageFix" result="effect1_dropShadow_2637_3961"/>
<feBlend mode="normal" in="SourceGraphic" in2="effect1_dropShadow_2637_3961" result="shape"/>
</filter>
<filter id="filter1_d_2637_3961" x="0" y="0" width="140.443" height="140.443" filterUnits="userSpaceOnUse" color-interpolation-filters="sRGB">
<feFlood flood-opacity="0" result="BackgroundImageFix"/>
<feColorMatrix in="SourceAlpha" type="matrix" values="0 0 0 0 0 0 0 0 0 0 0 0 0 0 0 0 0 0 127 0" result="hardAlpha"/>
<feOffset/>
<feGaussianBlur stdDeviation="8"/>
<feComposite in2="hardAlpha" operator="out"/>
<feColorMatrix type="matrix" values="0 0 0 0 0.0862745 0 0 0 0 0.560784 0 0 0 0 1 0 0 0 1 0"/>
<feBlend mode="normal" in2="BackgroundImageFix" result="effect1_dropShadow_2637_3961"/>
<feBlend mode="normal" in="SourceGraphic" in2="effect1_dropShadow_2637_3961" result="shape"/>
</filter>
<radialGradient id="paint0_radial_2637_3961" cx="0" cy="0" r="1" gradientUnits="userSpaceOnUse" gradientTransform="translate(123.77 16.7076) rotate(133.052) scale(145.609 198.5)">
<stop stop-color="#EDF6FF"/>
<stop offset="1" stop-color="#D2D2D2"/>
</radialGradient>
<linearGradient id="paint1_linear_2637_3961" x1="69.5105" y1="64.1445" x2="69.5105" y2="91.1776" gradientUnits="userSpaceOnUse">
<stop/>
<stop offset="1" stop-color="#041436"/>
</linearGradient>
<linearGradient id="paint2_linear_2637_3961" x1="69.573" y1="90.4062" x2="69.573" y2="99.348" gradientUnits="userSpaceOnUse">
<stop/>
<stop offset="1" stop-color="#041436"/>
</linearGradient>
<linearGradient id="paint3_linear_2637_3961" x1="85.84" y1="69.5391" x2="85.84" y2="77.7028" gradientUnits="userSpaceOnUse">
<stop/>
<stop offset="1" stop-color="#041436"/>
</linearGradient>
<linearGradient id="paint4_linear_2637_3961" x1="53.0544" y1="69.2344" x2="53.0544" y2="78.019" gradientUnits="userSpaceOnUse">
<stop/>
<stop offset="1" stop-color="#041436"/>
</linearGradient>
<clipPath id="clip0_2637_3961">
<rect width="81" height="65.3476" fill="white" transform="translate(29 34)"/>
</clipPath>
</defs>
</svg>
